<?xml version="1.0" encoding="UTF-8"?>
<!DOCTYPE svg PUBLIC "-//W3C//DTD SVG 1.1//EN" "http://www.w3.org/Graphics/SVG/1.1/DTD/svg11.dtd">
<!-- Creator: CorelDRAW 2020 (64-Bit) -->
<svg xmlns="http://www.w3.org/2000/svg" xml:space="preserve" width="200" height="200" version="1.1" style="shape-rendering:geometricPrecision; text-rendering:geometricPrecision; image-rendering:optimizeQuality; fill-rule:evenodd; clip-rule:evenodd"
viewBox="0 0 846.66 846.66"
 xmlns:xlink="http://www.w3.org/1999/xlink"
 xmlns:xodm="http://www.corel.com/coreldraw/odm/2003">
 <defs>
  <style type="text/css">
   <![CDATA[
    .fil0 {fill:none}
    .fil2 {fill:#60B238}
    .fil3 {fill:#2B2A29;fill-rule:nonzero}
    .fil1 {fill:url(#id0)}
   ]]>
  </style>
  <linearGradient id="id0" gradientUnits="userSpaceOnUse" x1="208.39" y1="362.17" x2="661.61" y2="362.17">
   <stop offset="0" style="stop-opacity:1; stop-color:#393185"/>
   <stop offset="1" style="stop-opacity:1; stop-color:#0082C9"/>
  </linearGradient>
 </defs>
 <g id="Layer_x0020_1">
  <metadata id="CorelCorpID_0Corel-Layer"/>
  <rect class="fil0" width="846.66" height="846.66"/>
  <g id="_2564382093424">
   <path class="fil1" d="M661.62 297.27l0 -108.23 -0.02 0.07 -1.01 2.25c-1.08,2.38 -2.2,4.77 -3.33,7.14l-0.23 0.5c-1.19,2.47 -2.4,4.93 -3.65,7.38l0 0.01 -0.97 1.92 -0.04 0.08c-1.03,2 -2.09,4.02 -3.17,6.02 -0.48,0.87 -0.93,1.74 -1.43,2.61 -0.91,1.71 -1.87,3.41 -2.82,5.08 -0.66,1.17 -1.33,2.33 -2,3.49 -0.87,1.48 -1.74,2.95 -2.62,4.41 -0.84,1.43 -1.7,2.85 -2.58,4.26 -0.71,1.16 -1.44,2.31 -2.17,3.46 -0.96,1.54 -1.94,3.06 -2.93,4.56 -0.65,1 -1.3,1.99 -1.96,2.96 -1.2,1.83 -2.45,3.64 -3.69,5.44l-1.34 1.92c-1.39,1.99 -2.8,3.97 -4.24,5.93l-1.32 1.79c-1.56,2.11 -3.12,4.18 -4.72,6.26l-0.81 1.03c-1.69,2.2 -3.43,4.36 -5.18,6.51l-0.75 0.92c-1.83,2.24 -3.68,4.46 -5.59,6.66l-0.42 0.5c-1.99,2.33 -4.01,4.61 -6.07,6.9l-0.33 0.36c-2.1,2.32 -4.24,4.62 -6.4,6.89l-0.11 0.14c-2.23,2.33 -4.51,4.66 -6.79,6.96 -2.08,2.06 -4.16,4.09 -6.26,6.08l-1.65 1.58c-1.88,1.76 -3.74,3.49 -5.64,5.21l-0.83 0.76c-2.11,1.91 -4.25,3.77 -6.39,5.62l-1.74 1.47c-1.77,1.52 -3.57,3.03 -5.36,4.5 -0.47,0.38 -0.91,0.77 -1.37,1.13 -2.17,1.77 -4.36,3.51 -6.58,5.22l-1.54 1.19c-1.9,1.48 -3.83,2.91 -5.77,4.33l-1.36 1.04c-2.24,1.62 -4.48,3.23 -6.73,4.8 -0.63,0.43 -1.23,0.86 -1.85,1.28 -1.7,1.18 -3.44,2.34 -5.16,3.49 -0.74,0.5 -1.48,0.99 -2.23,1.49 -2.17,1.42 -4.37,2.82 -6.56,4.21 -0.7,0.43 -1.39,0.85 -2.09,1.27 -1.73,1.08 -3.46,2.13 -5.2,3.16 -0.76,0.45 -1.5,0.91 -2.25,1.35 -2.32,1.36 -4.65,2.7 -6.98,4 -0.44,0.24 -0.89,0.48 -1.33,0.73 -1.92,1.06 -3.85,2.1 -5.77,3.13 -0.87,0.45 -1.71,0.9 -2.58,1.34 -2.12,1.11 -4.28,2.21 -6.42,3.27 -0.69,0.34 -1.38,0.68 -2.06,1.02 -1.91,0.93 -3.82,1.85 -5.74,2.74 -0.9,0.43 -1.81,0.85 -2.73,1.27 -1.85,0.84 -3.72,1.69 -5.59,2.5 -0.9,0.4 -1.8,0.79 -2.7,1.18 -1.94,0.84 -3.9,1.65 -5.85,2.46 -1.07,0.43 -2.14,0.86 -3.21,1.28 -1.64,0.66 -3.28,1.3 -4.93,1.94 -0.84,0.32 -1.72,0.65 -2.56,0.97 -2.26,0.86 -4.56,1.68 -6.83,2.49 -1.05,0.37 -2.09,0.72 -3.12,1.08 -1.63,0.56 -3.26,1.09 -4.87,1.63 -0.92,0.3 -1.83,0.61 -2.75,0.91 -2.24,0.72 -4.52,1.41 -6.78,2.08 -1.17,0.37 -2.36,0.7 -3.55,1.04 -1.39,0.4 -2.78,0.8 -4.18,1.19 -1.19,0.33 -2.38,0.66 -3.59,0.97 -2.18,0.59 -4.37,1.15 -6.57,1.7 -1.27,0.32 -2.56,0.62 -3.85,0.92 -1.18,0.28 -2.38,0.55 -3.54,0.82 -1.45,0.33 -2.89,0.64 -4.33,0.94 -0.83,0.18 -1.66,0.35 -2.48,0.52 -2.8,0.57 -5.61,1.13 -8.44,1.65l-2.57 0.48c-1.66,0.27 -3.31,0.56 -4.95,0.82 -0.51,0.09 -1.03,0.17 -1.54,0.25 -3.17,0.51 -6.35,0.96 -9.53,1.39 -0.75,0.1 -1.48,0.2 -2.23,0.29 -1.66,0.22 -3.32,0.42 -4.98,0.59l-2.02 0.23c-3.37,0.36 -6.76,0.68 -10.15,0.96l-0.97 0.08c-1.87,0.15 -3.77,0.29 -5.65,0.39l-1.13 0.08c-5.87,0.36 -11.73,0.59 -17.61,0.67l-0.74 0.01c-5.94,0.08 -11.89,0.01 -17.84,-0.18l-0.85 -0.03c-5.93,-0.22 -11.86,-0.57 -17.78,-1.07l-0.79 -0.06c-6.01,-0.5 -12.03,-1.16 -18.02,-1.95l-0.35 -0.05c-18.48,-2.47 -36.8,-6.3 -54.83,-11.48l-0.08 0c38.53,79.96 120.54,135.5 214.9,135.5l0 0c131.07,0 238.29,-107.12 238.29,-238.05zm-182.98 -238.06l-293.59 0 0 176.3c87.72,-6.46 173.62,-43.19 240.67,-110.19 20.46,-20.43 38.09,-42.63 52.92,-66.11zm57.64 96.58l-0.41 0.6 -0.96 1.32c-1.51,2.14 -3.03,4.25 -4.59,6.36l-0.78 1.05c-1.61,2.14 -3.23,4.28 -4.87,6.38l-0.65 0.81c-1.65,2.11 -3.33,4.21 -5.03,6.29l-0.83 1.02c-1.77,2.15 -3.58,4.28 -5.41,6.42l-0.42 0.48c-1.89,2.18 -3.79,4.33 -5.73,6.47l-0.57 0.61c-1.93,2.13 -3.89,4.24 -5.88,6.33l-0.41 0.43c-2.1,2.21 -4.24,4.4 -6.41,6.57 -2.03,2.03 -4.09,4.03 -6.16,6l-0.99 0.94c-1.98,1.88 -3.98,3.73 -5.99,5.56l-1.17 1.06c-2.05,1.84 -4.11,3.67 -6.17,5.47l-0.74 0.62c-1.9,1.63 -3.81,3.24 -5.72,4.81l-1.28 1.08c-2.05,1.66 -4.08,3.29 -6.15,4.91l-1.37 1.07c-2.05,1.59 -4.12,3.16 -6.2,4.72l-1.38 1.01c-1.93,1.42 -3.84,2.81 -5.77,4.17l-0.99 0.71c-2.06,1.44 -4.13,2.87 -6.2,4.26l-1.91 1.3c-2.04,1.36 -4.12,2.71 -6.2,4.03l-1.56 0.99c-1.99,1.26 -3.99,2.49 -6,3.71l-1.85 1.11c-1.86,1.12 -3.72,2.21 -5.58,3.29l-1.89 1.07c-2.04,1.16 -4.09,2.29 -6.15,3.41 -0.81,0.45 -1.63,0.88 -2.45,1.32 -1.91,1.02 -3.81,2.01 -5.73,3 -0.86,0.42 -1.7,0.86 -2.55,1.27 -1.57,0.8 -3.16,1.58 -4.76,2.35 -0.76,0.38 -1.51,0.73 -2.27,1.1 -1.97,0.94 -3.94,1.86 -5.93,2.75 -1,0.45 -1.99,0.92 -3,1.35 -1.8,0.81 -3.58,1.59 -5.4,2.36 -1.16,0.49 -2.33,0.98 -3.5,1.47 -1.26,0.51 -2.53,1.04 -3.8,1.55 -1.57,0.61 -3.13,1.25 -4.7,1.84 -1.31,0.51 -2.62,1.01 -3.94,1.49 -1.13,0.44 -2.27,0.86 -3.43,1.27 -1.89,0.69 -3.76,1.37 -5.66,2.01 -1.14,0.4 -2.26,0.78 -3.39,1.15 -1.16,0.39 -2.32,0.75 -3.47,1.13 -1.95,0.64 -3.95,1.25 -5.93,1.86 -0.93,0.3 -1.87,0.58 -2.82,0.86 -2.02,0.61 -4.06,1.18 -6.09,1.75 -0.98,0.27 -1.98,0.54 -2.97,0.82 -1.47,0.39 -2.94,0.78 -4.41,1.16l-2.16 0.55c-2.45,0.61 -4.91,1.21 -7.35,1.76l-1.98 0.46c-2.76,0.62 -5.55,1.2 -8.32,1.77l-1.14 0.23c-4.87,0.96 -9.76,1.83 -14.67,2.6l-0.95 0.15c-3.11,0.48 -6.22,0.93 -9.34,1.32l-0.48 0.07c-5.06,0.66 -10.14,1.2 -15.21,1.66l-0.25 0.02c-3.32,0.28 -6.64,0.52 -9.96,0.74l-0.29 0.01c-20.6,1.24 -41.25,0.82 -61.79,-1.26l-0.03 0c-0.49,-6.23 -0.74,-12.54 -0.74,-18.9l0 -28.91c98.55,0.94 197.37,-36.11 272.55,-111.21 25.57,-25.55 46.72,-53.84 63.47,-83.92 -2.59,8.44 -3.99,17.41 -3.99,26.7 0,21.06 7.17,40.44 19.2,55.86l0 0z"/>
   <path class="fil2" d="M571.25 183.12c-0.78,1.14 -1.56,2.29 -2.35,3.42l-0.5 0.75c-1.66,2.37 -3.36,4.73 -5.07,7.07l-0.52 0.7c-1.75,2.38 -3.55,4.74 -5.37,7.09l-0.34 0.46c-1.83,2.35 -3.69,4.69 -5.58,7.02l-0.49 0.6c-1.88,2.3 -3.78,4.57 -5.73,6.84l-0.43 0.51c-1.97,2.27 -3.96,4.53 -5.99,6.78l-0.5 0.55c-2.03,2.25 -4.1,4.49 -6.21,6.7l-0.33 0.34c-2.19,2.28 -4.38,4.57 -6.64,6.81 -2.07,2.08 -4.19,4.11 -6.3,6.14l-1.26 1.2c-2.04,1.92 -4.08,3.81 -6.14,5.69l-1.35 1.2c-1.89,1.7 -3.79,3.38 -5.71,5.03l-0.99 0.86c-2.1,1.8 -4.23,3.57 -6.38,5.32l-1.5 1.23c-2.2,1.78 -4.41,3.55 -6.65,5.26l-0.51 0.4c-2.14,1.65 -4.29,3.27 -6.46,4.88l-1.21 0.9c-2.17,1.58 -4.36,3.13 -6.54,4.67l-1.84 1.27c-1.92,1.33 -3.85,2.63 -5.79,3.93 -0.75,0.49 -1.5,0.98 -2.25,1.47 -1.85,1.21 -3.68,2.4 -5.54,3.57 -0.66,0.41 -1.32,0.83 -1.99,1.24 -2.21,1.38 -4.43,2.72 -6.65,4.05 -0.58,0.33 -1.17,0.67 -1.75,1.02 -1.98,1.15 -3.96,2.29 -5.95,3.4l-1.41 0.8c-2.2,1.21 -4.41,2.41 -6.63,3.58l-2.38 1.26c-2.19,1.14 -4.38,2.26 -6.57,3.34 -0.69,0.34 -1.39,0.68 -2.08,1.01 -1.8,0.88 -3.59,1.74 -5.4,2.58 -0.77,0.37 -1.56,0.74 -2.34,1.11 -2.17,1 -4.36,1.98 -6.54,2.93 -0.9,0.4 -1.8,0.77 -2.7,1.17 -1.74,0.75 -3.48,1.48 -5.23,2.2 -1.24,0.51 -2.49,1.01 -3.74,1.51 -1.62,0.63 -3.24,1.27 -4.86,1.89 -0.95,0.36 -1.91,0.73 -2.86,1.09 -2.16,0.8 -4.31,1.59 -6.47,2.34 -0.96,0.34 -1.93,0.67 -2.9,1 -1.69,0.59 -3.4,1.16 -5.09,1.72 -1.11,0.36 -2.23,0.72 -3.34,1.08 -1.88,0.6 -3.77,1.18 -5.65,1.75 -1.12,0.34 -2.23,0.66 -3.33,0.98 -1.84,0.54 -3.7,1.06 -5.55,1.56 -1.41,0.39 -2.84,0.78 -4.26,1.14 -1.18,0.32 -2.37,0.61 -3.55,0.91 -1.99,0.5 -3.98,0.99 -5.97,1.44 -1.21,0.3 -2.45,0.58 -3.66,0.86 -1.48,0.33 -2.95,0.65 -4.44,0.96 -0.84,0.18 -1.68,0.35 -2.54,0.52 -2.6,0.54 -5.21,1.05 -7.84,1.53l-2.23 0.41c-5.08,0.88 -10.17,1.67 -15.29,2.37l-1.45 0.2c-3.25,0.42 -6.53,0.8 -9.78,1.15l-0.59 0.06c-1.81,0.19 -3.62,0.38 -5.43,0.54l-0.05 0c-3.42,0.29 -6.83,0.54 -10.26,0.76l-1.8 0.11c-5.27,0.3 -10.57,0.49 -15.88,0.58l-0.12 0c-3.62,0.06 -7.22,0.06 -10.82,0.01l-0.48 0c-5.46,-0.08 -10.9,-0.27 -16.36,-0.58l-0.74 -0.04c-9.07,-0.54 -18.15,-1.4 -27.19,-2.58l-0.55 -0.08c-5.46,-0.72 -10.91,-1.55 -16.33,-2.5l-0.04 -0.02c2.01,9.98 4.66,19.73 7.89,29.23l0.25 0.06c1.93,0.42 3.85,0.84 5.78,1.25 1.38,0.3 2.75,0.57 4.13,0.84 1.04,0.21 2.09,0.4 3.14,0.62 2.37,0.44 4.75,0.86 7.12,1.27 0.97,0.16 1.95,0.33 2.92,0.5 1.48,0.23 2.96,0.47 4.44,0.68 0.96,0.13 1.91,0.29 2.87,0.41 1.4,0.21 2.82,0.41 4.24,0.59 1.99,0.27 3.99,0.51 5.98,0.74 1.41,0.16 2.8,0.3 4.2,0.46 1.06,0.09 2.13,0.2 3.21,0.31 2.92,0.28 5.86,0.52 8.78,0.73l1.33 0.11c1.49,0.1 2.98,0.18 4.47,0.27l2.96 0.16c1.39,0.07 2.78,0.13 4.16,0.19 2.04,0.07 4.05,0.14 6.07,0.18 1.44,0.04 2.87,0.05 4.31,0.06 1.05,0.01 2.09,0.02 3.14,0.02 1.41,0 2.79,0.01 4.18,0 2.05,-0.01 4.07,-0.04 6.11,-0.09 1.38,-0.03 2.77,-0.08 4.15,-0.14 1.05,-0.03 2.12,-0.07 3.19,-0.12 1.39,-0.06 2.78,-0.12 4.18,-0.19 2.01,-0.12 4.05,-0.24 6.07,-0.38 1.3,-0.09 2.61,-0.19 3.91,-0.31 1.24,-0.1 2.47,-0.2 3.71,-0.3 1.27,-0.13 2.53,-0.24 3.79,-0.37 2.08,-0.2 4.16,-0.43 6.24,-0.67 1.26,-0.15 2.51,-0.3 3.76,-0.46 1.27,-0.17 2.54,-0.33 3.81,-0.5 1.19,-0.17 2.38,-0.33 3.55,-0.5 2.15,-0.31 4.3,-0.65 6.43,-1 1.17,-0.2 2.35,-0.4 3.52,-0.62 1.32,-0.22 2.66,-0.45 3.98,-0.69 1.19,-0.23 2.38,-0.45 3.57,-0.67 2.12,-0.41 4.25,-0.85 6.36,-1.3 1.14,-0.25 2.27,-0.5 3.41,-0.75 1.34,-0.31 2.68,-0.61 4.03,-0.91 1.12,-0.27 2.25,-0.53 3.37,-0.8 2.17,-0.53 4.35,-1.08 6.52,-1.65 0.89,-0.23 1.79,-0.48 2.67,-0.71 1.7,-0.47 3.4,-0.93 5.09,-1.41 0.9,-0.25 1.79,-0.52 2.68,-0.77 2.23,-0.65 4.46,-1.33 6.66,-2.01 0.93,-0.3 1.84,-0.59 2.75,-0.89 1.58,-0.5 3.15,-1.01 4.73,-1.54l2.76 -0.94c2.23,-0.77 4.47,-1.56 6.68,-2.36 0.79,-0.29 1.59,-0.59 2.38,-0.89 1.7,-0.63 3.37,-1.26 5.05,-1.92l2.66 -1.05c2.22,-0.87 4.41,-1.75 6.58,-2.67 0.79,-0.33 1.55,-0.66 2.32,-1 1.66,-0.72 3.33,-1.43 4.98,-2.18l2.45 -1.08c2.23,-1.01 4.46,-2.05 6.69,-3.12 0.6,-0.28 1.23,-0.59 1.84,-0.88 1.8,-0.87 3.61,-1.77 5.41,-2.67l2.26 -1.14c2.23,-1.15 4.45,-2.3 6.63,-3.48 0.51,-0.27 1.02,-0.56 1.54,-0.83 1.89,-1.05 3.78,-2.08 5.67,-3.16l1.81 -1.02c2.27,-1.31 4.54,-2.63 6.78,-3.97l1.24 -0.76c1.92,-1.17 3.83,-2.35 5.75,-3.55l1.9 -1.21c2.2,-1.41 4.39,-2.84 6.57,-4.28l0.98 -0.67c1.93,-1.31 3.85,-2.63 5.76,-3.97l1.82 -1.29c2.18,-1.54 4.35,-3.1 6.5,-4.69l0.59 -0.45c2.03,-1.51 4.04,-3.04 6.04,-4.6l1.64 -1.27c2.11,-1.66 4.21,-3.34 6.3,-5.06l0.7 -0.58c1.92,-1.58 3.83,-3.18 5.73,-4.8l1.56 -1.36c2.1,-1.82 4.18,-3.65 6.23,-5.52l0.28 -0.25c1.98,-1.78 3.93,-3.6 5.87,-5.44l1.57 -1.5c2.03,-1.93 4.03,-3.87 6,-5.85 2.13,-2.12 4.21,-4.27 6.29,-6.44l0.7 -0.72c1.9,-2.01 3.77,-4.02 5.63,-6.06l0.65 -0.71c1.96,-2.16 3.89,-4.34 5.78,-6.54l0.43 -0.5c1.78,-2.06 3.53,-4.15 5.27,-6.24l0.89 -1.08c1.75,-2.13 3.47,-4.28 5.16,-6.45l0.3 -0.36c1.75,-2.24 3.47,-4.49 5.15,-6.76l0.86 -1.14c1.5,-2.04 2.99,-4.09 4.44,-6.14l0.81 -1.13c1.47,-2.1 2.91,-4.19 4.34,-6.31l1.14 -1.69c1.28,-1.95 2.57,-3.9 3.82,-5.86l1 -1.55c1.29,-2.06 2.58,-4.13 3.83,-6.21l0.75 -1.22c1.35,-2.24 2.68,-4.51 3.98,-6.77l0.52 -0.94 -41.54 -7.67z"/>
   <path class="fil3" d="M15.5 631.7l0 -14.65c0,-7.56 0,-12.63 0,-15.2 0,-2.58 -0.07,-4.63 -0.2,-6.17 0,-0.07 0,-0.12 0,-0.15 0,-0.04 0,-0.09 0,-0.15 -0.07,-1.74 -0.39,-3.05 -0.95,-3.92 -0.57,-0.87 -1.7,-1.47 -3.37,-1.8 -0.2,-0.07 -0.47,-0.12 -0.8,-0.15 -0.34,-0.04 -0.67,-0.05 -1.01,-0.05 -0.27,-0.07 -0.55,-0.11 -0.85,-0.11 -0.3,0 -0.55,0 -0.76,0 -0.2,0 -0.38,-0.04 -0.55,-0.15 -0.16,-0.1 -0.25,-0.25 -0.25,-0.45 0,-0.33 0.14,-0.55 0.4,-0.65 0.27,-0.1 0.67,-0.15 1.21,-0.15 0.53,0 1.09,0 1.66,0 0.56,0 1.15,0 1.75,0 0.61,0.07 1.23,0.1 1.86,0.1 0.64,0 1.26,0 1.86,0 1.14,0.07 2.11,0.12 2.91,0.15 0.81,0.04 1.31,0.05 1.51,0.05 0.2,0 0.7,-0.01 1.51,-0.05 0.8,-0.03 1.7,-0.08 2.71,-0.15 0.2,0 0.43,0 0.7,0 0.27,0 0.54,0 0.81,0 0.8,0 1.57,-0.02 2.31,-0.05 0.73,-0.03 1.37,-0.05 1.9,-0.05 0.54,0 0.94,0.05 1.21,0.15 0.27,0.1 0.4,0.32 0.4,0.65 0,0.2 -0.08,0.35 -0.25,0.45 -0.17,0.11 -0.35,0.15 -0.55,0.15 -0.07,0 -0.12,0 -0.15,0 -0.04,0 -0.09,0 -0.15,0 -0.27,0 -0.57,0.04 -0.91,0.11 -0.33,0.06 -0.77,0.13 -1.3,0.2 -1.34,0.2 -2.26,0.77 -2.76,1.7 -0.51,0.94 -0.83,2.28 -0.96,4.02 0,0.06 0,0.11 0,0.15 0,0.03 0,0.08 0,0.15 -0.13,1.54 -0.2,3.59 -0.2,6.17 0,2.57 0,7.68 0,15.3l0 13.95c0,7.29 0.72,12.75 2.16,16.36 1.44,3.61 3.23,6.46 5.37,8.53 0.61,0.6 1.21,1.14 1.81,1.6 0.6,0.47 1.21,0.87 1.81,1.21 1.81,1.07 3.65,1.79 5.52,2.16 1.88,0.36 3.89,0.55 6.03,0.55 3.08,0 6.05,-0.67 8.89,-2.01 2.85,-1.34 5.17,-3.08 6.98,-5.22 2.35,-2.87 3.9,-6.4 4.67,-10.58 0.77,-4.18 1.16,-8.85 1.16,-14l0 -12.65c0,-7.56 0,-12.63 0,-15.2 0,-2.58 -0.07,-4.63 -0.2,-6.17 0,-0.07 0,-0.12 0,-0.15 0,-0.04 0,-0.09 0,-0.15 -0.07,-1.74 -0.39,-3.05 -0.96,-3.92 -0.57,-0.87 -1.69,-1.47 -3.36,-1.8 -0.2,-0.07 -0.47,-0.12 -0.81,-0.15 -0.33,-0.04 -0.67,-0.05 -1,-0.05 -0.27,-0.07 -0.55,-0.11 -0.85,-0.11 -0.3,0 -0.56,0 -0.76,0 -0.2,0 -0.38,-0.04 -0.55,-0.15 -0.17,-0.1 -0.25,-0.25 -0.25,-0.45 0,-0.33 0.13,-0.55 0.4,-0.65 0.27,-0.1 0.67,-0.15 1.21,-0.15 0.4,0 0.8,0 1.2,0 0.4,0 0.77,0 1.11,0 0.8,0 1.59,0.02 2.36,0.05 0.77,0.03 1.49,0.05 2.16,0.05 1,0.07 1.86,0.12 2.56,0.15 0.7,0.04 1.12,0.05 1.25,0.05 0.21,0 0.61,-0.01 1.21,-0.05 0.6,-0.03 1.31,-0.08 2.11,-0.15 0.33,0 0.69,0 1.05,0 0.37,0 0.72,0 1.06,0 0.53,-0.07 1.05,-0.1 1.56,-0.1 0.5,0 0.98,0 1.45,0 0.54,0 0.94,0.05 1.21,0.15 0.27,0.1 0.4,0.32 0.4,0.65 0,0.2 -0.08,0.35 -0.25,0.45 -0.17,0.11 -0.35,0.15 -0.55,0.15 -0.07,0 -0.12,0 -0.16,0 -0.03,0 -0.08,0 -0.14,0 -0.27,0 -0.58,0.02 -0.91,0.05 -0.33,0.04 -0.77,0.12 -1.31,0.26 -1.33,0.26 -2.26,0.85 -2.76,1.75 -0.5,0.91 -0.82,2.23 -0.95,3.97 0,0.06 0,0.11 0,0.15 0,0.03 0,0.08 0,0.15 -0.14,1.54 -0.2,3.59 -0.2,6.17 0,2.57 0,7.68 0,15.3l0 10.64c0,1.14 -0.02,2.24 -0.05,3.31 -0.04,1.07 -0.09,2.18 -0.15,3.31 -0.27,4.42 -1.04,8.72 -2.31,12.9 -1.28,4.18 -3.52,7.71 -6.73,10.59 -0.67,0.6 -1.36,1.17 -2.06,1.7 -0.71,0.54 -1.39,1.01 -2.06,1.41 -3.02,1.74 -5.95,2.87 -8.79,3.41 -2.85,0.53 -5.48,0.8 -7.89,0.8 -1.2,0 -3.06,-0.13 -5.57,-0.4 -2.51,-0.27 -5.14,-0.94 -7.89,-2.01 -1.27,-0.53 -2.53,-1.17 -3.76,-1.9 -1.24,-0.74 -2.4,-1.64 -3.47,-2.71 -2.48,-2.34 -4.55,-5.51 -6.23,-9.49 -1.67,-3.98 -2.51,-9.61 -2.51,-16.91l0 -0.1z"/>
   <path class="fil3" d="M126.2 592.16l0 42.55c0,4.89 0.01,9.22 0.05,13 0.03,3.78 0.18,6.74 0.45,8.88 0.13,1.47 0.45,2.71 0.95,3.71 0.51,1.01 1.49,1.61 2.97,1.81 0.26,0.07 0.55,0.12 0.85,0.15 0.3,0.03 0.62,0.05 0.95,0.05 0.54,0.07 1.06,0.12 1.56,0.15 0.5,0.04 0.89,0.05 1.16,0.05 0.33,0 0.55,0.07 0.65,0.2 0.1,0.14 0.15,0.27 0.15,0.4 0,0.27 -0.13,0.46 -0.4,0.56 -0.27,0.1 -0.67,0.15 -1.21,0.15 -0.33,0 -0.67,0 -1,0 -0.34,0 -0.67,0 -1.01,0 -1.07,0 -2.12,-0.02 -3.16,-0.05 -1.04,-0.04 -1.99,-0.05 -2.86,-0.05 -1.21,-0.07 -2.2,-0.12 -2.97,-0.15 -0.77,-0.04 -1.22,-0.05 -1.35,-0.05 -0.14,0 -0.59,0.01 -1.36,0.05 -0.77,0.03 -1.66,0.08 -2.66,0.15 -0.27,0 -0.54,0 -0.8,0 -0.27,0 -0.57,0 -0.91,0 -0.73,0 -1.47,0.01 -2.21,0.05 -0.73,0.03 -1.37,0.05 -1.91,0.05 -0.53,0 -0.93,-0.05 -1.2,-0.15 -0.27,-0.1 -0.4,-0.29 -0.4,-0.56 0,-0.13 0.06,-0.26 0.2,-0.4 0.13,-0.13 0.33,-0.2 0.6,-0.2 0.2,0 0.44,-0.01 0.7,-0.05 0.27,-0.03 0.54,-0.05 0.81,-0.05 0.26,-0.07 0.53,-0.12 0.8,-0.15 0.27,-0.03 0.5,-0.08 0.7,-0.15 1.01,-0.2 1.69,-0.8 2.06,-1.81 0.37,-1 0.66,-2.24 0.86,-3.71 0.26,-2.14 0.41,-5.1 0.45,-8.88 0.03,-3.78 0.05,-8.08 0.05,-12.9l0 -42.65 -14.87 0.2c-3.08,0.14 -5.36,0.42 -6.83,0.86 -1.47,0.43 -2.61,1.25 -3.41,2.46 -0.54,0.87 -0.92,1.52 -1.16,1.95 -0.23,0.44 -0.42,0.82 -0.55,1.16 -0.14,0.4 -0.29,0.67 -0.45,0.8 -0.17,0.13 -0.35,0.2 -0.56,0.2 -0.13,0 -0.25,-0.08 -0.35,-0.25 -0.1,-0.17 -0.15,-0.38 -0.15,-0.65 0,-0.27 0.1,-0.9 0.3,-1.91 0.2,-1 0.44,-2.11 0.71,-3.31 0,-0.07 0.01,-0.13 0.05,-0.2 0.03,-0.07 0.05,-0.13 0.05,-0.2 0.26,-1.14 0.5,-2.18 0.7,-3.11 0.2,-0.94 0.34,-1.51 0.4,-1.71 0.07,-0.13 0.12,-0.27 0.15,-0.4 0.04,-0.13 0.09,-0.27 0.15,-0.4 0.07,-0.27 0.17,-0.52 0.3,-0.75 0.14,-0.24 0.27,-0.35 0.41,-0.35 0.2,0 0.43,0.06 0.7,0.2 0.27,0.13 0.6,0.26 1,0.4 0.34,0.13 0.72,0.25 1.16,0.35 0.43,0.1 0.95,0.18 1.56,0.25 0.4,0.07 0.8,0.12 1.2,0.15 0.4,0.03 0.81,0.05 1.21,0.05 1.14,0.07 2.22,0.13 3.26,0.2 1.04,0.07 1.79,0.1 2.26,0.1l37.77 -0.1c1.21,0.07 2.29,0.07 3.27,0 0.97,-0.07 1.82,-0.13 2.56,-0.2 0.2,-0.07 0.42,-0.12 0.65,-0.15 0.24,-0.03 0.45,-0.05 0.65,-0.05 0.74,-0.13 1.34,-0.25 1.81,-0.35 0.47,-0.1 0.8,-0.15 1.01,-0.15 0.26,0 0.41,0.12 0.45,0.35 0.03,0.23 0.05,0.52 0.05,0.85 0,0.6 -0.02,1.34 -0.05,2.21 -0.04,0.87 -0.05,1.77 -0.05,2.71 0,0.2 0,0.42 0,0.65 0,0.24 0,0.45 0,0.65 -0.07,1.14 -0.12,2.16 -0.15,3.06 -0.04,0.91 -0.05,1.49 -0.05,1.76 0,0.47 -0.07,0.8 -0.2,1 -0.14,0.21 -0.3,0.31 -0.51,0.31 -0.26,0 -0.45,-0.12 -0.55,-0.36 -0.1,-0.23 -0.18,-0.68 -0.25,-1.35l-0.1 -1.21c-0.2,-1.47 -1.11,-2.72 -2.71,-3.76 -1.61,-1.03 -4.82,-1.59 -9.65,-1.65l-12.75 -0.31z"/>
   <path class="fil3" d="M196.91 592.16l0 42.55c0,4.89 0.02,9.22 0.06,13 0.03,3.78 0.18,6.74 0.45,8.88 0.13,1.47 0.45,2.71 0.95,3.71 0.5,1.01 1.49,1.61 2.96,1.81 0.27,0.07 0.56,0.12 0.86,0.15 0.3,0.03 0.62,0.05 0.95,0.05 0.54,0.07 1.06,0.12 1.56,0.15 0.5,0.04 0.89,0.05 1.16,0.05 0.33,0 0.55,0.07 0.65,0.2 0.1,0.14 0.15,0.27 0.15,0.4 0,0.27 -0.14,0.46 -0.4,0.56 -0.27,0.1 -0.67,0.15 -1.21,0.15 -0.33,0 -0.67,0 -1,0 -0.34,0 -0.67,0 -1.01,0 -1.07,0 -2.12,-0.02 -3.16,-0.05 -1.04,-0.04 -1.99,-0.05 -2.86,-0.05 -1.21,-0.07 -2.2,-0.12 -2.97,-0.15 -0.77,-0.04 -1.22,-0.05 -1.35,-0.05 -0.14,0 -0.59,0.01 -1.36,0.05 -0.77,0.03 -1.66,0.08 -2.66,0.15 -0.27,0 -0.54,0 -0.81,0 -0.26,0 -0.56,0 -0.9,0 -0.74,0 -1.47,0.01 -2.21,0.05 -0.74,0.03 -1.37,0.05 -1.91,0.05 -0.53,0 -0.94,-0.05 -1.2,-0.15 -0.27,-0.1 -0.41,-0.29 -0.41,-0.56 0,-0.13 0.07,-0.26 0.21,-0.4 0.13,-0.13 0.33,-0.2 0.6,-0.2 0.2,0 0.43,-0.01 0.7,-0.05 0.27,-0.03 0.54,-0.05 0.8,-0.05 0.27,-0.07 0.54,-0.12 0.81,-0.15 0.27,-0.03 0.5,-0.08 0.7,-0.15 1.01,-0.2 1.69,-0.8 2.06,-1.81 0.37,-1 0.65,-2.24 0.85,-3.71 0.27,-2.14 0.42,-5.1 0.46,-8.88 0.03,-3.78 0.05,-8.08 0.05,-12.9l0 -42.65 -14.87 0.2c-3.08,0.14 -5.36,0.42 -6.83,0.86 -1.47,0.43 -2.61,1.25 -3.42,2.46 -0.53,0.87 -0.92,1.52 -1.15,1.95 -0.24,0.44 -0.42,0.82 -0.55,1.16 -0.14,0.4 -0.29,0.67 -0.45,0.8 -0.17,0.13 -0.36,0.2 -0.56,0.2 -0.13,0 -0.25,-0.08 -0.35,-0.25 -0.1,-0.17 -0.15,-0.38 -0.15,-0.65 0,-0.27 0.1,-0.9 0.3,-1.91 0.2,-1 0.44,-2.11 0.7,-3.31 0,-0.07 0.02,-0.13 0.06,-0.2 0.03,-0.07 0.05,-0.13 0.05,-0.2 0.26,-1.14 0.5,-2.18 0.7,-3.11 0.2,-0.94 0.33,-1.51 0.4,-1.71 0.07,-0.13 0.12,-0.27 0.15,-0.4 0.03,-0.13 0.08,-0.27 0.15,-0.4 0.07,-0.27 0.17,-0.52 0.3,-0.75 0.14,-0.24 0.27,-0.35 0.4,-0.35 0.2,0 0.44,0.06 0.71,0.2 0.27,0.13 0.6,0.26 1,0.4 0.34,0.13 0.72,0.25 1.16,0.35 0.43,0.1 0.95,0.18 1.55,0.25 0.41,0.07 0.81,0.12 1.21,0.15 0.4,0.03 0.8,0.05 1.2,0.05 1.14,0.07 2.23,0.13 3.27,0.2 1.04,0.07 1.79,0.1 2.26,0.1l37.77 -0.1c1.2,0.07 2.29,0.07 3.26,0 0.97,-0.07 1.83,-0.13 2.57,-0.2 0.2,-0.07 0.41,-0.12 0.65,-0.15 0.23,-0.03 0.45,-0.05 0.65,-0.05 0.74,-0.13 1.34,-0.25 1.81,-0.35 0.47,-0.1 0.8,-0.15 1,-0.15 0.27,0 0.42,0.12 0.46,0.35 0.03,0.23 0.05,0.52 0.05,0.85 0,0.6 -0.02,1.34 -0.05,2.21 -0.04,0.87 -0.05,1.77 -0.05,2.71 0,0.2 0,0.42 0,0.65 0,0.24 0,0.45 0,0.65 -0.07,1.14 -0.12,2.16 -0.15,3.06 -0.04,0.91 -0.06,1.49 -0.06,1.76 0,0.47 -0.06,0.8 -0.2,1 -0.13,0.21 -0.3,0.31 -0.5,0.31 -0.27,0 -0.45,-0.12 -0.55,-0.36 -0.1,-0.23 -0.19,-0.68 -0.25,-1.35l-0.1 -1.21c-0.2,-1.47 -1.11,-2.72 -2.71,-3.76 -1.61,-1.03 -4.83,-1.59 -9.65,-1.65l-12.76 -0.31z"/>
   <path class="fil3" d="M232.17 652.78l4.12 -11.04 18.69 -51.38c0.46,-1.27 0.83,-2.18 1.1,-2.71 0.27,-0.54 0.54,-0.87 0.8,-1.01 0,-0.06 0.04,-0.09 0.11,-0.09 0.06,0 0.13,0 0.2,0 0.06,0 0.13,0 0.2,0 0.06,0 0.1,0.03 0.1,0.09 0.26,0.07 0.53,0.36 0.8,0.86 0.27,0.5 0.64,1.39 1.11,2.66 0.47,1.13 1.99,5.05 4.57,11.74 2.57,6.69 5.34,13.92 8.28,21.68 2.08,5.28 4.07,10.36 5.98,15.25 1.91,4.88 3.47,8.86 4.67,11.94 1.81,4.48 3.43,7.38 4.87,8.68 1.44,1.31 2.7,2.13 3.77,2.46 0.74,0.27 1.47,0.43 2.21,0.5 0.74,0.07 1.34,0.1 1.81,0.1 0.33,0 0.58,0.03 0.75,0.1 0.17,0.07 0.25,0.24 0.25,0.5 0,0.27 -0.2,0.46 -0.6,0.56 -0.4,0.1 -0.87,0.15 -1.41,0.15 -0.73,0 -2.51,0 -5.32,0 -2.81,0 -5.86,-0.07 -9.14,-0.2 -0.2,0 -0.42,0 -0.65,0 -0.24,0 -0.46,0 -0.66,0 -0.13,0 -0.27,0 -0.4,0 -0.13,0 -0.27,0 -0.4,0 -0.67,-0.07 -1.21,-0.12 -1.61,-0.15 -0.4,-0.04 -0.6,-0.19 -0.6,-0.46 0,-0.2 0.07,-0.35 0.2,-0.45 0.13,-0.1 0.3,-0.18 0.5,-0.25 0.2,-0.07 0.39,-0.22 0.56,-0.45 0.16,-0.23 0.25,-0.59 0.25,-1.05 0.06,-0.14 0.08,-0.3 0.05,-0.51 -0.04,-0.2 -0.12,-0.43 -0.25,-0.7l-9.45 -24.79c-0.06,-0.13 -0.17,-0.25 -0.3,-0.35 -0.13,-0.1 -0.33,-0.15 -0.6,-0.15l-21.6 -0.1c-0.27,0.07 -0.47,0.17 -0.6,0.3 -0.14,0.14 -0.27,0.34 -0.4,0.61l-6.03 17.66c-0.47,1.34 -0.82,2.57 -1.05,3.71 -0.24,1.14 -0.36,2.18 -0.36,3.11 0,0.87 0.32,1.52 0.96,1.96 0.63,0.43 1.32,0.72 2.06,0.85 0.13,0.07 0.27,0.1 0.4,0.1 0.13,0 0.27,0 0.4,0l1.01 -0.1c0.33,0.07 0.58,0.15 0.75,0.25 0.17,0.1 0.25,0.25 0.25,0.45 0,0.27 -0.13,0.46 -0.4,0.56 -0.27,0.1 -0.64,0.15 -1.11,0.15 -0.47,0 -0.97,-0.02 -1.5,-0.05 -0.54,-0.04 -1.11,-0.05 -1.71,-0.05 -0.2,0 -0.4,0 -0.6,0 -0.2,0 -0.41,0 -0.61,0 -0.73,-0.07 -1.42,-0.12 -2.06,-0.15 -0.63,-0.04 -1.08,-0.05 -1.35,-0.05 -0.27,0 -0.79,0.01 -1.56,0.05 -0.77,0.03 -1.69,0.08 -2.76,0.15 -0.74,0 -1.51,0.01 -2.31,0.05 -0.81,0.03 -1.64,0.05 -2.51,0.05 -0.34,0 -0.69,0 -1.06,0 -0.37,0 -0.72,0 -1.05,0 -0.67,0 -1.16,-0.05 -1.46,-0.15 -0.3,-0.1 -0.45,-0.29 -0.45,-0.56 0,-0.2 0.08,-0.35 0.25,-0.45 0.17,-0.1 0.39,-0.15 0.65,-0.15 0.2,0 0.44,0 0.71,0 0.26,0 0.53,-0.03 0.8,-0.1 0.2,0 0.42,-0.01 0.65,-0.05 0.24,-0.03 0.45,-0.05 0.66,-0.05 2.34,-0.33 4.11,-1.37 5.32,-3.11 1.21,-1.74 2.24,-3.85 3.11,-6.32l0 -0.1zm14.07 -22.18l19.18 0c0.27,0.07 0.42,0.03 0.45,-0.1 0.04,-0.13 0.02,-0.3 -0.05,-0.5l-9.54 -27.3c-0.27,-0.67 -0.52,-1 -0.75,-1 -0.24,0 -0.49,0.37 -0.76,1.1l-8.84 27.1c0,0.06 0,0.12 0,0.15 0,0.03 0,0.05 0,0.05 -0.06,0.07 -0.09,0.12 -0.09,0.15 0,0.03 0,0.05 0,0.05 0,0.13 0.05,0.23 0.15,0.3 0.1,0.07 0.18,0.1 0.25,0.1l0 -0.1z"/>
   <path class="fil3" d="M310.93 634.71l0 -17.66c0,-7.56 0,-12.63 0,-15.2 0,-2.58 -0.07,-4.63 -0.2,-6.17 0,-0.07 0,-0.12 0,-0.15 0,-0.04 0,-0.09 0,-0.15 -0.07,-1.74 -0.39,-3.05 -0.96,-3.92 -0.57,-0.87 -1.69,-1.47 -3.36,-1.8 -0.2,-0.07 -0.47,-0.12 -0.81,-0.15 -0.33,-0.04 -0.67,-0.05 -1,-0.05 -0.27,-0.07 -0.55,-0.11 -0.85,-0.11 -0.31,0 -0.56,0 -0.76,0 -0.2,0 -0.38,-0.04 -0.55,-0.15 -0.17,-0.1 -0.25,-0.25 -0.25,-0.45 0,-0.33 0.13,-0.55 0.4,-0.65 0.27,-0.1 0.67,-0.15 1.21,-0.15 0.53,0 1.08,0 1.65,0 0.57,0 1.16,0 1.76,0 0.67,0.07 1.32,0.1 1.96,0.1 0.64,0 1.25,0 1.86,0 1.07,0.07 1.99,0.12 2.76,0.15 0.77,0.04 1.22,0.05 1.36,0.05 0.26,0 0.88,-0.01 1.85,-0.05 0.98,-0.03 2.1,-0.08 3.37,-0.15 0.2,0 0.42,0 0.65,0 0.24,0 0.45,0 0.66,0 1,0 1.97,-0.02 2.91,-0.05 0.94,-0.03 1.74,-0.05 2.41,-0.05 0.74,0 1.49,0.02 2.26,0.05 0.77,0.03 1.52,0.05 2.26,0.05 2.48,0.2 4.91,0.6 7.28,1.21 2.38,0.6 4.61,1.63 6.68,3.1 0.4,0.27 0.82,0.61 1.26,1.01 0.43,0.4 0.89,0.87 1.35,1.4 1.08,1.28 2.06,2.86 2.97,4.77 0.9,1.91 1.35,4.06 1.35,6.47 0,0.41 0,0.79 0,1.16 0,0.37 -0.03,0.72 -0.1,1.05 -0.26,3.41 -1.34,6.84 -3.21,10.29 -1.88,3.44 -4.86,7.04 -8.94,10.79 4.15,5.28 7.97,10.1 11.45,14.45 3.48,4.34 6.66,8.09 9.54,11.24 2.75,2.87 5.16,4.75 7.23,5.62 2.08,0.86 3.76,1.4 5.03,1.6 0.94,0.13 1.76,0.22 2.46,0.25 0.7,0.04 1.19,0.05 1.46,0.05 0.26,0 0.48,0.07 0.65,0.2 0.17,0.14 0.25,0.27 0.25,0.4 0,0.27 -0.17,0.46 -0.5,0.56 -0.34,0.1 -0.97,0.15 -1.91,0.15l-7.13 0c-2.75,0 -4.88,-0.12 -6.38,-0.35 -1.51,-0.24 -2.9,-0.69 -4.17,-1.36 0,0 -0.02,-0.02 -0.05,-0.05 -0.03,-0.03 -0.09,-0.05 -0.15,-0.05 -0.6,-0.33 -1.17,-0.7 -1.71,-1.1 -0.54,-0.4 -1.07,-0.84 -1.61,-1.31 -1.54,-1.34 -3.11,-3.04 -4.72,-5.12 -1.61,-2.07 -3.45,-4.48 -5.52,-7.22 -0.27,-0.34 -0.55,-0.69 -0.86,-1.06 -0.3,-0.36 -0.58,-0.75 -0.85,-1.15 -0.2,-0.27 -0.4,-0.54 -0.6,-0.8 -0.2,-0.27 -0.4,-0.57 -0.61,-0.9 -1.74,-2.21 -3.33,-4.34 -4.77,-6.38 -1.44,-2.04 -2.56,-3.56 -3.36,-4.56 -0.07,-0.07 -0.12,-0.12 -0.15,-0.15 -0.04,-0.04 -0.09,-0.09 -0.15,-0.15 -0.14,-0.07 -0.29,-0.14 -0.46,-0.2 -0.16,-0.07 -0.35,-0.11 -0.55,-0.11l-12.35 -0.3c-0.27,0.07 -0.46,0.17 -0.56,0.3 -0.1,0.14 -0.15,0.34 -0.15,0.61l0 2.3c0,4.89 0.02,9.22 0.05,13 0.04,3.78 0.19,6.74 0.46,8.88 0.13,1.47 0.45,2.71 0.95,3.71 0.5,1.01 1.49,1.61 2.96,1.81 0.27,0.07 0.56,0.12 0.86,0.15 0.3,0.03 0.62,0.05 0.95,0.05 0.54,0.07 1.06,0.12 1.56,0.15 0.5,0.04 0.89,0.05 1.15,0.05 0.34,0 0.56,0.07 0.66,0.2 0.1,0.14 0.15,0.27 0.15,0.4 0,0.27 -0.14,0.46 -0.4,0.56 -0.27,0.1 -0.67,0.15 -1.21,0.15 -0.34,0 -0.67,0 -1.01,0 -0.33,0 -0.66,0 -1,0 -1.07,0 -2.13,-0.02 -3.16,-0.05 -1.04,-0.04 -2,-0.05 -2.87,-0.05 -1.2,-0.07 -2.19,-0.12 -2.96,-0.15 -0.77,-0.04 -1.22,-0.05 -1.36,-0.05 0,0 -0.35,0.01 -1.05,0.05 -0.7,0.03 -1.56,0.08 -2.56,0.15 -0.34,0 -0.66,0 -0.96,0 -0.3,0 -0.62,0 -0.95,0 -0.74,0.06 -1.44,0.1 -2.11,0.1 -0.67,0 -1.27,0 -1.81,0 -0.53,0 -0.94,-0.05 -1.2,-0.15 -0.27,-0.1 -0.41,-0.29 -0.41,-0.56 0,-0.13 0.07,-0.26 0.21,-0.4 0.13,-0.13 0.33,-0.2 0.6,-0.2 0.2,0 0.43,-0.01 0.7,-0.05 0.27,-0.03 0.54,-0.05 0.81,-0.05 0.26,-0.07 0.53,-0.12 0.8,-0.15 0.27,-0.03 0.5,-0.08 0.7,-0.15 1.01,-0.2 1.69,-0.8 2.06,-1.81 0.37,-1 0.65,-2.24 0.85,-3.71 0.27,-2.14 0.42,-5.1 0.46,-8.88 0.03,-3.78 0.05,-8.08 0.05,-12.9l0 -0.1zm8.03 -41.84l0 32.91c0,0.34 0.05,0.61 0.15,0.81 0.1,0.2 0.29,0.36 0.56,0.5 0.73,0.4 2.02,0.75 3.86,1.05 1.85,0.3 3.8,0.49 5.88,0.55 0.13,0 0.27,0 0.4,0 0.14,0 0.27,0 0.4,0 0.54,0 1.09,-0.01 1.66,-0.05 0.57,-0.03 1.16,-0.11 1.76,-0.25 0.67,-0.13 1.36,-0.31 2.06,-0.55 0.7,-0.23 1.39,-0.58 2.06,-1.05 1.74,-1.21 3.21,-3.13 4.42,-5.77 1.2,-2.65 1.81,-5.91 1.81,-9.79 0,-6.29 -1.58,-11.2 -4.73,-14.75 -3.14,-3.55 -7.39,-5.32 -12.75,-5.32 -1.48,0 -2.83,0.07 -4.07,0.2 -1.24,0.14 -2.13,0.27 -2.66,0.4 -0.27,0.07 -0.47,0.2 -0.6,0.4 -0.14,0.2 -0.21,0.47 -0.21,0.81l0 -0.1z"/>
   <path class="fil3" d="M378.93 652.78l4.12 -11.04 18.68 -51.38c0.47,-1.27 0.84,-2.18 1.11,-2.71 0.27,-0.54 0.54,-0.87 0.8,-1.01 0,-0.06 0.04,-0.09 0.1,-0.09 0.07,0 0.14,0 0.2,0 0.07,0 0.14,0 0.21,0 0.06,0 0.1,0.03 0.1,0.09 0.26,0.07 0.53,0.36 0.8,0.86 0.27,0.5 0.64,1.39 1.1,2.66 0.47,1.13 2,5.05 4.57,11.74 2.58,6.69 5.35,13.92 8.29,21.68 2.08,5.28 4.07,10.36 5.98,15.25 1.91,4.88 3.46,8.86 4.67,11.94 1.81,4.48 3.43,7.38 4.87,8.68 1.44,1.31 2.7,2.13 3.77,2.46 0.74,0.27 1.47,0.43 2.21,0.5 0.74,0.07 1.34,0.1 1.81,0.1 0.33,0 0.58,0.03 0.75,0.1 0.17,0.07 0.25,0.24 0.25,0.5 0,0.27 -0.2,0.46 -0.6,0.56 -0.4,0.1 -0.87,0.15 -1.41,0.15 -0.73,0 -2.51,0 -5.32,0 -2.81,0 -5.86,-0.07 -9.14,-0.2 -0.2,0 -0.42,0 -0.66,0 -0.23,0 -0.45,0 -0.65,0 -0.13,0 -0.27,0 -0.4,0 -0.13,0 -0.27,0 -0.4,0 -0.67,-0.07 -1.21,-0.12 -1.61,-0.15 -0.4,-0.04 -0.6,-0.19 -0.6,-0.46 0,-0.2 0.07,-0.35 0.2,-0.45 0.13,-0.1 0.3,-0.18 0.5,-0.25 0.2,-0.07 0.39,-0.22 0.55,-0.45 0.17,-0.23 0.26,-0.59 0.26,-1.05 0.06,-0.14 0.08,-0.3 0.04,-0.51 -0.03,-0.2 -0.11,-0.43 -0.25,-0.7l-9.44 -24.79c-0.07,-0.13 -0.17,-0.25 -0.3,-0.35 -0.13,-0.1 -0.33,-0.15 -0.6,-0.15l-21.6 -0.1c-0.27,0.07 -0.47,0.17 -0.6,0.3 -0.14,0.14 -0.27,0.34 -0.4,0.61l-6.03 17.66c-0.47,1.34 -0.82,2.57 -1.06,3.71 -0.23,1.14 -0.35,2.18 -0.35,3.11 0,0.87 0.32,1.52 0.96,1.96 0.63,0.43 1.32,0.72 2.06,0.85 0.13,0.07 0.26,0.1 0.4,0.1 0.13,0 0.27,0 0.4,0l1 -0.1c0.34,0.07 0.59,0.15 0.76,0.25 0.17,0.1 0.25,0.25 0.25,0.45 0,0.27 -0.13,0.46 -0.4,0.56 -0.27,0.1 -0.64,0.15 -1.11,0.15 -0.47,0 -0.97,-0.02 -1.5,-0.05 -0.54,-0.04 -1.11,-0.05 -1.71,-0.05 -0.2,0 -0.4,0 -0.6,0 -0.21,0 -0.41,0 -0.61,0 -0.73,-0.07 -1.42,-0.12 -2.06,-0.15 -0.63,-0.04 -1.09,-0.05 -1.35,-0.05 -0.27,0 -0.79,0.01 -1.56,0.05 -0.77,0.03 -1.69,0.08 -2.76,0.15 -0.74,0 -1.51,0.01 -2.31,0.05 -0.81,0.03 -1.64,0.05 -2.51,0.05 -0.34,0 -0.69,0 -1.06,0 -0.37,0 -0.72,0 -1.05,0 -0.67,0 -1.16,-0.05 -1.46,-0.15 -0.3,-0.1 -0.45,-0.29 -0.45,-0.56 0,-0.2 0.08,-0.35 0.25,-0.45 0.17,-0.1 0.38,-0.15 0.65,-0.15 0.2,0 0.44,0 0.7,0 0.27,0 0.54,-0.03 0.81,-0.1 0.2,0 0.42,-0.01 0.65,-0.05 0.24,-0.03 0.45,-0.05 0.65,-0.05 2.35,-0.33 4.12,-1.37 5.33,-3.11 1.2,-1.74 2.24,-3.85 3.11,-6.32l0 -0.1zm14.07 -22.18l19.18 0c0.27,0.07 0.42,0.03 0.45,-0.1 0.04,-0.13 0.02,-0.3 -0.05,-0.5l-9.54 -27.3c-0.27,-0.67 -0.52,-1 -0.75,-1 -0.24,0 -0.49,0.37 -0.76,1.1l-8.84 27.1c0,0.06 0,0.12 0,0.15 0,0.03 0,0.05 0,0.05 -0.06,0.07 -0.1,0.12 -0.1,0.15 0,0.03 0,0.05 0,0.05 0,0.13 0.05,0.23 0.16,0.3 0.09,0.07 0.18,0.1 0.25,0.1l0 -0.1z"/>
   <path class="fil3" d="M459.09 602l1.31 48.17c0.13,4.15 0.48,7.04 1.05,8.68 0.57,1.64 1.53,2.66 2.87,3.06 0.2,0.07 0.38,0.12 0.55,0.15 0.17,0.03 0.35,0.05 0.55,0.05 0.8,0.2 1.58,0.32 2.31,0.35 0.74,0.04 1.27,0.05 1.61,0.05 0.27,0 0.47,0.05 0.6,0.15 0.13,0.1 0.2,0.25 0.2,0.45 0,0.27 -0.15,0.46 -0.45,0.56 -0.3,0.1 -0.75,0.15 -1.36,0.15 -1.4,0 -2.71,-0.02 -3.91,-0.05 -1.21,-0.04 -2.28,-0.05 -3.22,-0.05 -0.94,-0.07 -1.71,-0.12 -2.31,-0.15 -0.6,-0.04 -1,-0.05 -1.2,-0.05 -0.2,0 -0.62,0.01 -1.26,0.05 -0.64,0.03 -1.36,0.08 -2.16,0.15 -0.87,0 -1.84,0.01 -2.91,0.05 -1.07,0.03 -2.18,0.05 -3.32,0.05 -0.47,0 -0.85,-0.05 -1.15,-0.15 -0.3,-0.1 -0.45,-0.29 -0.45,-0.56 0,-0.2 0.06,-0.35 0.2,-0.45 0.13,-0.1 0.33,-0.15 0.6,-0.15 0.33,0 0.77,-0.01 1.3,-0.05 0.54,-0.03 1.11,-0.12 1.71,-0.25 0.2,-0.07 0.39,-0.12 0.55,-0.15 0.17,-0.03 0.36,-0.08 0.56,-0.15 1.27,-0.33 2.09,-1.4 2.46,-3.21 0.37,-1.81 0.55,-4.99 0.55,-9.54l0.1 -6.32 0 -51.38c0,-1.87 0.09,-3.16 0.25,-3.86 0.17,-0.7 0.46,-1.05 0.86,-1.05 0.2,0 0.48,0.15 0.85,0.45 0.37,0.3 0.72,0.65 1.06,1.05 0.06,0.07 0.13,0.13 0.2,0.2 0.06,0.07 0.1,0.1 0.1,0.1 0.26,0.27 0.5,0.52 0.7,0.75 0.2,0.24 0.4,0.46 0.6,0.66 0.74,0.87 4.32,4.75 10.75,11.64 6.43,6.89 13.53,14.51 21.3,22.88 0.6,0.6 1.19,1.22 1.75,1.85 0.57,0.64 1.13,1.26 1.66,1.86 0.2,0.2 0.4,0.4 0.6,0.6 0.21,0.2 0.41,0.4 0.61,0.61 4.22,4.61 8.18,8.96 11.9,13.04 3.72,4.08 6.25,6.83 7.58,8.23l-1.1 -51.18c-0.07,-3.21 -0.35,-5.49 -0.85,-6.82 -0.51,-1.34 -1.53,-2.21 -3.07,-2.61 -0.2,-0.07 -0.43,-0.12 -0.7,-0.15 -0.27,-0.04 -0.5,-0.05 -0.7,-0.05 -0.74,-0.14 -1.43,-0.22 -2.06,-0.26 -0.64,-0.03 -1.13,-0.05 -1.46,-0.05 -0.33,0 -0.55,-0.06 -0.65,-0.2 -0.1,-0.13 -0.15,-0.3 -0.15,-0.5 0,-0.33 0.18,-0.53 0.55,-0.6 0.37,-0.07 0.85,-0.1 1.45,-0.1 0.21,0 0.39,0 0.56,0 0.17,0 0.32,0 0.45,0 1,0 1.98,0.02 2.91,0.05 0.94,0.03 1.81,0.05 2.61,0.05 0.94,0.07 1.76,0.12 2.47,0.15 0.7,0.04 1.18,0.05 1.45,0.05 0.27,0 0.67,-0.01 1.21,-0.05 0.53,-0.03 1.17,-0.08 1.91,-0.15 0.73,0 1.57,-0.02 2.51,-0.05 0.94,-0.03 1.91,-0.05 2.91,-0.05 0.54,0 0.97,0.03 1.31,0.1 0.33,0.07 0.5,0.27 0.5,0.6 0,0.2 -0.1,0.37 -0.3,0.5 -0.2,0.14 -0.47,0.2 -0.81,0.2 -0.26,0 -0.58,0.02 -0.95,0.05 -0.37,0.04 -0.85,0.12 -1.46,0.26 -1.67,0.33 -2.71,1.15 -3.11,2.45 -0.4,1.31 -0.6,3.47 -0.6,6.48l-0.1 7.42 -0.11 51.38c0,3.35 -0.06,5.37 -0.2,6.08 -0.13,0.7 -0.36,1.05 -0.7,1.05 -0.4,0 -1.05,-0.38 -1.96,-1.16 -0.9,-0.76 -2.69,-2.49 -5.37,-5.16 -0.4,-0.4 -2.53,-2.56 -6.38,-6.48 -3.85,-3.91 -8.05,-8.24 -12.61,-12.99 -0.13,-0.14 -0.26,-0.27 -0.4,-0.4 -0.13,-0.14 -0.27,-0.27 -0.4,-0.4 -1.07,-1.21 -2.16,-2.38 -3.27,-3.52 -1.1,-1.13 -2.19,-2.27 -3.26,-3.41 -0.13,-0.13 -0.27,-0.27 -0.4,-0.4 -0.14,-0.13 -0.24,-0.27 -0.3,-0.4 -5.7,-6.16 -10.99,-11.94 -15.87,-17.36 -4.89,-5.42 -8.11,-9 -9.65,-10.74l0 -0.1z"/>
   <path class="fil3" d="M586.87 665.22c-7.57,0 -14.02,-0.9 -19.34,-2.71 -5.32,-1.8 -9.96,-4.48 -13.91,-8.03 -2.88,-2.54 -5.16,-5.3 -6.83,-8.28 -1.68,-2.97 -2.92,-5.97 -3.72,-8.98 -0.6,-2.14 -1.02,-4.26 -1.26,-6.37 -0.23,-2.11 -0.35,-4.13 -0.35,-6.07 0,-2.14 0.29,-4.72 0.86,-7.73 0.57,-3.01 1.59,-6.12 3.06,-9.33 0.87,-1.81 1.91,-3.6 3.11,-5.37 1.21,-1.77 2.62,-3.46 4.22,-5.07 3.02,-3.01 6.95,-5.55 11.81,-7.62 4.85,-2.08 11.13,-3.11 18.83,-3.11 1.41,0 2.96,0.03 4.67,0.09 1.71,0.07 3.43,0.21 5.17,0.41 0.81,0.06 1.61,0.16 2.42,0.3 0.8,0.13 1.6,0.27 2.41,0.4 1.94,0.33 3.73,0.64 5.37,0.9 1.64,0.27 3.27,0.47 4.87,0.61 0.54,0.06 0.89,0.18 1.06,0.35 0.16,0.16 0.25,0.41 0.25,0.75 0,0.27 -0.04,0.65 -0.1,1.15 -0.07,0.5 -0.14,1.22 -0.2,2.16 -0.07,0.33 -0.12,0.69 -0.15,1.05 -0.04,0.37 -0.05,0.79 -0.05,1.26 -0.07,0.6 -0.1,1.25 -0.1,1.96 0,0.7 -0.04,1.42 -0.1,2.15 0,0.61 0,1.22 0,1.86 0,0.63 0,1.22 0,1.76 0,0.6 -0.02,1.12 -0.06,1.55 -0.03,0.44 -0.05,0.79 -0.05,1.05 -0.06,0.74 -0.15,1.28 -0.25,1.61 -0.1,0.33 -0.31,0.5 -0.65,0.5 -0.33,0 -0.55,-0.18 -0.65,-0.55 -0.1,-0.37 -0.15,-0.89 -0.15,-1.56 0,-0.2 0,-0.38 0,-0.55 0,-0.16 0,-0.35 0,-0.55 -0.14,-1.81 -0.57,-3.53 -1.31,-5.17 -0.74,-1.64 -1.71,-2.96 -2.91,-3.96 -1.74,-1.54 -4.42,-2.88 -8.04,-4.01 -3.61,-1.14 -7.67,-1.71 -12.15,-1.71 -5.9,0 -10.53,0.63 -13.92,1.91 -3.38,1.27 -6,2.67 -7.88,4.21 -0.27,0.2 -0.5,0.4 -0.7,0.6 -0.2,0.2 -0.41,0.4 -0.61,0.6 -3.68,3.48 -6.11,7.45 -7.28,11.9 -1.17,4.44 -1.76,9.25 -1.76,14.4 0,9.56 3.37,18.08 10.1,25.54 6.73,7.46 15.49,11.19 26.27,11.19 3.75,0 7.1,-0.32 10.04,-0.96 2.95,-0.63 5.43,-1.99 7.44,-4.06 0.46,-0.54 0.9,-1.14 1.3,-1.81 0.4,-0.67 0.77,-1.37 1.11,-2.11 0.33,-0.93 0.62,-1.8 0.85,-2.61 0.23,-0.8 0.39,-1.43 0.45,-1.9 0.14,-0.54 0.27,-0.92 0.4,-1.15 0.14,-0.24 0.34,-0.36 0.61,-0.36 0.26,0 0.45,0.15 0.55,0.45 0.1,0.31 0.15,0.66 0.15,1.06 0,0.2 -0.1,1.02 -0.3,2.46 -0.2,1.44 -0.44,2.99 -0.71,4.66 -0.13,0.67 -0.26,1.36 -0.4,2.06 -0.13,0.7 -0.27,1.36 -0.4,1.96 -0.07,0.33 -0.13,0.63 -0.2,0.9 -0.07,0.27 -0.13,0.54 -0.2,0.8 -0.07,0.2 -0.12,0.39 -0.15,0.55 -0.03,0.17 -0.08,0.32 -0.15,0.46 -0.14,0.33 -0.29,0.6 -0.45,0.8 -0.17,0.2 -0.42,0.4 -0.76,0.6 -0.13,0.07 -0.28,0.14 -0.45,0.2 -0.17,0.07 -0.38,0.17 -0.65,0.3 -1.48,0.54 -3.4,0.99 -5.78,1.36 -2.38,0.37 -4.8,0.62 -7.28,0.75 -0.87,0 -1.73,0.02 -2.56,0.05 -0.84,0.04 -1.66,0.05 -2.46,0.05z"/>
   <path class="fil3" d="M694.65 617.05l0 17.66c0,4.89 0.02,9.22 0.05,13 0.03,3.78 0.19,6.74 0.45,8.88 0.14,1.47 0.46,2.71 0.96,3.71 0.5,1.01 1.49,1.61 2.96,1.81 0.27,0.07 0.55,0.12 0.85,0.15 0.3,0.03 0.62,0.05 0.96,0.05 0.53,0.07 1.05,0.12 1.56,0.15 0.5,0.04 0.88,0.05 1.15,0.05 0.34,0 0.55,0.07 0.65,0.2 0.1,0.14 0.16,0.27 0.16,0.4 0,0.27 -0.14,0.46 -0.41,0.56 -0.26,0.1 -0.67,0.15 -1.2,0.15 -0.34,0 -0.67,0 -1.01,0 -0.33,0 -0.67,0 -1,0 -1.07,0 -2.13,-0.02 -3.17,-0.05 -1.03,-0.04 -1.99,-0.05 -2.86,-0.05 -1.2,-0.07 -2.19,-0.12 -2.96,-0.15 -0.77,-0.04 -1.22,-0.05 -1.36,-0.05 -0.13,0 -0.58,0.01 -1.35,0.05 -0.77,0.03 -1.66,0.08 -2.67,0.15 -0.26,0 -0.53,0 -0.8,0 -0.27,0 -0.57,0 -0.9,0 -0.74,0 -1.48,0.01 -2.21,0.05 -0.74,0.03 -1.38,0.05 -1.91,0.05 -0.54,0 -0.94,-0.05 -1.21,-0.15 -0.27,-0.1 -0.4,-0.29 -0.4,-0.56 0,-0.13 0.07,-0.26 0.2,-0.4 0.14,-0.13 0.34,-0.2 0.6,-0.2 0.21,0 0.44,-0.01 0.71,-0.05 0.26,-0.03 0.53,-0.05 0.8,-0.05 0.27,-0.07 0.54,-0.12 0.8,-0.15 0.27,-0.03 0.51,-0.08 0.71,-0.15 1,-0.2 1.69,-0.8 2.06,-1.81 0.36,-1 0.65,-2.24 0.85,-3.71 0.27,-2.14 0.42,-5.1 0.45,-8.88 0.04,-3.78 0.05,-8.08 0.05,-12.9l0 -10.63c0,-0.14 -0.06,-0.25 -0.2,-0.35 -0.13,-0.1 -0.27,-0.15 -0.4,-0.15l-42.69 -0.1c-0.14,0.06 -0.27,0.13 -0.4,0.2 -0.14,0.06 -0.2,0.23 -0.2,0.5l0 10.43c0,4.89 0.01,9.22 0.05,13 0.03,3.78 0.18,6.74 0.45,8.88 0.13,1.47 0.45,2.71 0.95,3.71 0.5,1.01 1.49,1.61 2.97,1.81 0.26,0.07 0.55,0.12 0.85,0.15 0.3,0.03 0.62,0.05 0.95,0.05 0.54,0.07 1.06,0.12 1.56,0.15 0.5,0.04 0.89,0.05 1.16,0.05 0.33,0 0.55,0.07 0.65,0.2 0.1,0.14 0.15,0.27 0.15,0.4 0,0.27 -0.13,0.46 -0.4,0.56 -0.27,0.1 -0.67,0.15 -1.21,0.15 -0.33,0 -0.67,0 -1,0 -0.34,0 -0.67,0 -1.01,0 -1.07,0 -2.12,-0.02 -3.16,-0.05 -1.04,-0.04 -1.99,-0.05 -2.86,-0.05 -1.21,-0.07 -2.2,-0.12 -2.97,-0.15 -0.77,-0.04 -1.22,-0.05 -1.35,-0.05 -0.14,0 -0.59,0.01 -1.36,0.05 -0.77,0.03 -1.66,0.08 -2.66,0.15 -0.27,0 -0.54,0 -0.8,0 -0.27,0 -0.57,0 -0.91,0 -0.74,0 -1.47,0.01 -2.21,0.05 -0.74,0.03 -1.37,0.05 -1.91,0.05 -0.53,0 -0.94,-0.05 -1.2,-0.15 -0.27,-0.1 -0.41,-0.29 -0.41,-0.56 0,-0.13 0.07,-0.26 0.21,-0.4 0.13,-0.13 0.33,-0.2 0.6,-0.2 0.2,0 0.44,-0.01 0.7,-0.05 0.27,-0.03 0.54,-0.05 0.81,-0.05 0.26,-0.07 0.53,-0.12 0.8,-0.15 0.27,-0.03 0.5,-0.08 0.7,-0.15 1.01,-0.2 1.69,-0.8 2.06,-1.81 0.37,-1 0.65,-2.24 0.86,-3.71 0.26,-2.14 0.41,-5.1 0.45,-8.88 0.03,-3.78 0.05,-8.08 0.05,-12.9l0 -17.76c0,-7.56 0,-12.63 0,-15.2 0,-2.58 -0.07,-4.63 -0.2,-6.17 0,-0.07 0,-0.12 0,-0.15 0,-0.04 0,-0.09 0,-0.15 -0.07,-1.74 -0.39,-3.05 -0.96,-3.92 -0.57,-0.87 -1.69,-1.47 -3.36,-1.8 -0.2,-0.07 -0.47,-0.12 -0.81,-0.15 -0.33,-0.04 -0.66,-0.05 -1,-0.05 -0.27,-0.07 -0.55,-0.11 -0.85,-0.11 -0.31,0 -0.56,0 -0.76,0 -0.2,0 -0.38,-0.04 -0.55,-0.15 -0.17,-0.1 -0.25,-0.25 -0.25,-0.45 0,-0.33 0.13,-0.55 0.4,-0.65 0.27,-0.1 0.67,-0.15 1.21,-0.15 0.53,0 1.08,0 1.65,0 0.57,0 1.16,0 1.76,0 0.67,0.07 1.32,0.1 1.96,0.1 0.64,0 1.26,0 1.86,0 1.07,0.07 1.99,0.12 2.76,0.15 0.77,0.04 1.22,0.05 1.36,0.05 0.13,0 0.58,-0.01 1.35,-0.05 0.77,-0.03 1.66,-0.08 2.67,-0.15 0.26,0 0.53,0 0.8,0 0.27,0 0.57,0 0.9,0 0.74,0 1.48,-0.02 2.21,-0.05 0.74,-0.03 1.38,-0.05 1.91,-0.05 0.54,0 0.94,0.05 1.21,0.15 0.26,0.1 0.4,0.32 0.4,0.65 0,0.2 -0.09,0.35 -0.25,0.45 -0.17,0.11 -0.35,0.15 -0.56,0.15 -0.06,0 -0.11,0 -0.15,0 -0.03,0 -0.08,0 -0.15,0 -0.27,0 -0.57,0.04 -0.9,0.11 -0.34,0.06 -0.77,0.13 -1.31,0.2 -1.34,0.26 -2.26,0.85 -2.76,1.75 -0.5,0.91 -0.82,2.23 -0.95,3.97 0,0.06 0,0.11 0,0.15 0,0.03 0,0.08 0,0.15 -0.14,1.54 -0.2,3.59 -0.2,6.17 0,2.57 0,7.68 0,15.3l0 2.01c0,0.33 0.06,0.53 0.2,0.6 0.13,0.07 0.26,0.1 0.4,0.1l42.69 -0.1c0.13,0.07 0.27,0.07 0.4,0 0.14,-0.07 0.2,-0.23 0.2,-0.5l0 -2.21c0,-7.56 0,-12.63 0,-15.2 0,-2.58 -0.06,-4.63 -0.2,-6.17 0,-0.07 0,-0.12 0,-0.15 0,-0.04 0,-0.09 0,-0.15 -0.07,-1.74 -0.38,-3.05 -0.95,-3.92 -0.57,-0.87 -1.69,-1.47 -3.37,-1.8 -0.2,-0.07 -0.47,-0.12 -0.8,-0.15 -0.34,-0.04 -0.67,-0.05 -1.01,-0.05 -0.26,-0.07 -0.55,-0.11 -0.85,-0.11 -0.3,0 -0.55,0 -0.75,0 -0.2,0 -0.39,-0.04 -0.56,-0.15 -0.16,-0.1 -0.25,-0.25 -0.25,-0.45 0,-0.33 0.14,-0.55 0.41,-0.65 0.26,-0.1 0.67,-0.15 1.2,-0.15 0.54,0 1.09,0 1.66,0 0.57,0 1.15,0 1.76,0 0.67,0.07 1.32,0.1 1.96,0.1 0.63,0 1.25,0 1.85,0 1.07,0.07 2,0.12 2.77,0.15 0.77,0.04 1.22,0.05 1.35,0.05 0.14,0 0.59,-0.01 1.36,-0.05 0.77,-0.03 1.65,-0.08 2.66,-0.15 0.27,0 0.54,0 0.8,0 0.27,0 0.57,0 0.91,0 0.73,0 1.47,-0.02 2.21,-0.05 0.73,-0.03 1.37,-0.05 1.91,-0.05 0.53,0 0.93,0.05 1.2,0.15 0.27,0.1 0.4,0.32 0.4,0.65 0,0.2 -0.08,0.35 -0.25,0.45 -0.16,0.11 -0.35,0.15 -0.55,0.15 -0.07,0 -0.12,0 -0.15,0 -0.04,0 -0.08,0 -0.15,0 -0.27,0 -0.57,0.04 -0.91,0.11 -0.33,0.06 -0.77,0.13 -1.3,0.2 -1.34,0.26 -2.26,0.85 -2.76,1.75 -0.51,0.91 -0.82,2.23 -0.96,3.97 0,0.06 0,0.11 0,0.15 0,0.03 0,0.08 0,0.15 -0.13,1.54 -0.2,3.59 -0.2,6.17 0,2.57 0,7.68 0,15.3l0 -0.1z"/>
   <path class="fil3" d="M722.07 652.78l4.12 -11.04 18.68 -51.38c0.47,-1.27 0.84,-2.18 1.11,-2.71 0.27,-0.54 0.54,-0.87 0.8,-1.01 0,-0.06 0.04,-0.09 0.1,-0.09 0.07,0 0.14,0 0.21,0 0.06,0 0.13,0 0.2,0 0.06,0 0.1,0.03 0.1,0.09 0.26,0.07 0.53,0.36 0.8,0.86 0.27,0.5 0.64,1.39 1.11,2.66 0.46,1.13 1.99,5.05 4.57,11.74 2.57,6.69 5.34,13.92 8.28,21.68 2.08,5.28 4.07,10.36 5.98,15.25 1.91,4.88 3.46,8.86 4.67,11.94 1.81,4.48 3.43,7.38 4.87,8.68 1.44,1.31 2.7,2.13 3.77,2.46 0.74,0.27 1.47,0.43 2.21,0.5 0.74,0.07 1.34,0.1 1.81,0.1 0.33,0 0.58,0.03 0.75,0.1 0.17,0.07 0.25,0.24 0.25,0.5 0,0.27 -0.2,0.46 -0.6,0.56 -0.4,0.1 -0.87,0.15 -1.41,0.15 -0.73,0 -2.51,0 -5.32,0 -2.81,0 -5.86,-0.07 -9.14,-0.2 -0.2,0 -0.42,0 -0.66,0 -0.23,0 -0.45,0 -0.65,0 -0.13,0 -0.27,0 -0.4,0 -0.13,0 -0.27,0 -0.4,0 -0.67,-0.07 -1.21,-0.12 -1.61,-0.15 -0.4,-0.04 -0.6,-0.19 -0.6,-0.46 0,-0.2 0.07,-0.35 0.2,-0.45 0.13,-0.1 0.3,-0.18 0.5,-0.25 0.2,-0.07 0.39,-0.22 0.56,-0.45 0.16,-0.23 0.25,-0.59 0.25,-1.05 0.06,-0.14 0.08,-0.3 0.05,-0.51 -0.04,-0.2 -0.12,-0.43 -0.26,-0.7l-9.44 -24.79c-0.06,-0.13 -0.17,-0.25 -0.3,-0.35 -0.13,-0.1 -0.33,-0.15 -0.6,-0.15l-21.6 -0.1c-0.27,0.07 -0.47,0.17 -0.6,0.3 -0.14,0.14 -0.27,0.34 -0.4,0.61l-6.03 17.66c-0.47,1.34 -0.82,2.57 -1.06,3.71 -0.23,1.14 -0.35,2.18 -0.35,3.11 0,0.87 0.32,1.52 0.96,1.96 0.63,0.43 1.32,0.72 2.06,0.85 0.13,0.07 0.26,0.1 0.4,0.1 0.13,0 0.27,0 0.4,0l1.01 -0.1c0.33,0.07 0.58,0.15 0.75,0.25 0.17,0.1 0.25,0.25 0.25,0.45 0,0.27 -0.13,0.46 -0.4,0.56 -0.27,0.1 -0.64,0.15 -1.11,0.15 -0.47,0 -0.97,-0.02 -1.5,-0.05 -0.54,-0.04 -1.11,-0.05 -1.71,-0.05 -0.2,0 -0.4,0 -0.6,0 -0.2,0 -0.41,0 -0.61,0 -0.73,-0.07 -1.42,-0.12 -2.06,-0.15 -0.63,-0.04 -1.09,-0.05 -1.35,-0.05 -0.27,0 -0.79,0.01 -1.56,0.05 -0.77,0.03 -1.69,0.08 -2.76,0.15 -0.74,0 -1.51,0.01 -2.31,0.05 -0.81,0.03 -1.64,0.05 -2.51,0.05 -0.34,0 -0.69,0 -1.06,0 -0.37,0 -0.72,0 -1.05,0 -0.67,0 -1.16,-0.05 -1.46,-0.15 -0.3,-0.1 -0.45,-0.29 -0.45,-0.56 0,-0.2 0.08,-0.35 0.25,-0.45 0.17,-0.1 0.39,-0.15 0.65,-0.15 0.2,0 0.44,0 0.71,0 0.26,0 0.53,-0.03 0.8,-0.1 0.2,0 0.42,-0.01 0.65,-0.05 0.24,-0.03 0.45,-0.05 0.65,-0.05 2.35,-0.33 4.12,-1.37 5.33,-3.11 1.2,-1.74 2.24,-3.85 3.11,-6.32l0 -0.1zm14.07 -22.18l19.18 0c0.27,0.07 0.42,0.03 0.45,-0.1 0.04,-0.13 0.02,-0.3 -0.05,-0.5l-9.54 -27.3c-0.27,-0.67 -0.52,-1 -0.75,-1 -0.24,0 -0.49,0.37 -0.76,1.1l-8.84 27.1c0,0.06 0,0.12 0,0.15 0,0.03 0,0.05 0,0.05 -0.06,0.07 -0.1,0.12 -0.1,0.15 0,0.03 0,0.05 0,0.05 0,0.13 0.05,0.23 0.16,0.3 0.1,0.07 0.18,0.1 0.25,0.1l0 -0.1z"/>
   <path class="fil3" d="M809.27 617.05l0 17.87c0,7.42 0.15,12.89 0.45,16.4 0.3,3.52 0.88,5.74 1.75,6.68 0.81,0.8 2.05,1.38 3.72,1.75 1.68,0.37 4.46,0.55 8.34,0.55 2.68,0 5.09,-0.13 7.23,-0.4 2.14,-0.26 3.82,-1.13 5.02,-2.61 0.41,-0.47 0.77,-1.02 1.11,-1.65 0.33,-0.64 0.6,-1.26 0.8,-1.86 0.2,-0.47 0.35,-0.9 0.45,-1.3 0.11,-0.4 0.19,-0.81 0.26,-1.21 0.06,-0.4 0.16,-0.72 0.3,-0.95 0.13,-0.23 0.33,-0.35 0.6,-0.35 0.27,0 0.43,0.12 0.5,0.35 0.07,0.23 0.1,0.62 0.1,1.15 0,0.34 -0.06,1.06 -0.2,2.16 -0.13,1.1 -0.27,2.29 -0.4,3.56 -0.13,0.81 -0.29,1.59 -0.45,2.36 -0.17,0.77 -0.32,1.42 -0.45,1.96 0,0.07 -0.02,0.15 -0.06,0.25 -0.03,0.1 -0.05,0.18 -0.05,0.25 -0.33,0.94 -0.83,1.52 -1.5,1.76 -0.67,0.23 -2.28,0.35 -4.82,0.35 -3.62,0 -6.78,-0.04 -9.5,-0.1 -2.71,-0.07 -5.1,-0.14 -7.18,-0.2 -2.14,-0.07 -4.02,-0.14 -5.62,-0.2 -1.61,-0.07 -3.15,-0.1 -4.62,-0.1 -0.07,0 -0.24,0 -0.51,0 -0.26,0 -0.57,0.03 -0.9,0.1 -0.4,0 -0.82,0 -1.26,0 -0.43,0 -0.92,0 -1.45,0 -0.2,0 -0.42,0 -0.66,0 -0.23,0 -0.48,0.03 -0.75,0.1 -0.74,0 -1.49,0.01 -2.26,0.05 -0.77,0.03 -1.46,0.05 -2.06,0.05 -0.53,0 -0.94,-0.05 -1.2,-0.15 -0.27,-0.1 -0.41,-0.29 -0.41,-0.56 0,-0.13 0.07,-0.26 0.21,-0.4 0.13,-0.13 0.33,-0.2 0.6,-0.2 0.2,0 0.43,-0.01 0.7,-0.05 0.27,-0.03 0.54,-0.05 0.81,-0.05 0.26,-0.07 0.53,-0.12 0.8,-0.15 0.27,-0.03 0.5,-0.08 0.7,-0.15 1.01,-0.2 1.69,-0.8 2.06,-1.81 0.37,-1 0.65,-2.24 0.85,-3.71 0.27,-2.14 0.42,-5.1 0.46,-8.88 0.03,-3.78 0.05,-8.08 0.05,-12.9l0 -17.76c0,-7.56 0,-12.63 0,-15.2 0,-2.58 -0.07,-4.63 -0.2,-6.17 0,-0.07 0,-0.12 0,-0.15 0,-0.04 0,-0.09 0,-0.15 -0.07,-1.74 -0.39,-3.05 -0.96,-3.92 -0.57,-0.87 -1.69,-1.47 -3.36,-1.8 -0.2,-0.07 -0.47,-0.12 -0.81,-0.15 -0.33,-0.04 -0.67,-0.05 -1,-0.05 -0.27,-0.07 -0.55,-0.11 -0.85,-0.11 -0.31,0 -0.56,0 -0.76,0 -0.2,0 -0.38,-0.04 -0.55,-0.15 -0.17,-0.1 -0.25,-0.25 -0.25,-0.45 0,-0.33 0.13,-0.55 0.4,-0.65 0.27,-0.1 0.67,-0.15 1.2,-0.15 0.54,0 1.09,0 1.66,0 0.57,0 1.16,0 1.76,0 0.67,0.07 1.32,0.1 1.96,0.1 0.64,0 1.25,0 1.86,0 1.07,0.07 1.99,0.12 2.76,0.15 0.77,0.04 1.22,0.05 1.36,0.05 0.13,0 0.63,-0.01 1.5,-0.05 0.87,-0.03 1.88,-0.08 3.02,-0.15 0.2,0 0.43,0 0.7,0 0.27,0 0.54,0 0.8,0 0.94,0 1.83,-0.02 2.66,-0.05 0.84,-0.03 1.56,-0.05 2.16,-0.05 0.54,0 0.94,0.05 1.21,0.15 0.27,0.1 0.4,0.32 0.4,0.65 0,0.2 -0.08,0.35 -0.25,0.45 -0.17,0.11 -0.35,0.15 -0.55,0.15 -0.27,0 -0.64,0.02 -1.11,0.05 -0.47,0.04 -0.93,0.09 -1.4,0.16 -0.14,0 -0.27,0.01 -0.4,0.05 -0.14,0.03 -0.27,0.05 -0.41,0.05 -1.47,0.26 -2.46,0.85 -2.96,1.75 -0.5,0.91 -0.82,2.23 -0.95,3.97 0,0.06 0,0.11 0,0.15 0,0.03 0,0.08 0,0.15 -0.14,1.54 -0.2,3.59 -0.2,6.17 0,2.57 0,7.68 0,15.3l0 -0.1z"/>
   <path class="fil3" d="M96.11 753.93l0 -14.65c0,-7.56 0,-12.63 0,-15.2 0,-2.58 -0.07,-4.64 -0.2,-6.17 0,-0.07 0,-0.12 0,-0.15 0,-0.04 0,-0.09 0,-0.15 -0.07,-1.74 -0.39,-3.05 -0.95,-3.92 -0.57,-0.87 -1.7,-1.47 -3.37,-1.8 -0.2,-0.07 -0.47,-0.12 -0.8,-0.16 -0.34,-0.03 -0.67,-0.05 -1.01,-0.05 -0.27,-0.06 -0.55,-0.1 -0.85,-0.1 -0.3,0 -0.55,0 -0.75,0 -0.2,0 -0.39,-0.05 -0.56,-0.15 -0.16,-0.1 -0.25,-0.25 -0.25,-0.45 0,-0.33 0.14,-0.55 0.4,-0.65 0.27,-0.1 0.67,-0.15 1.21,-0.15 0.53,0 1.09,0 1.66,0 0.57,0 1.15,0 1.75,0 0.61,0.07 1.23,0.1 1.86,0.1 0.64,0 1.26,0 1.86,0 1.14,0.07 2.11,0.12 2.91,0.15 0.81,0.03 1.31,0.05 1.51,0.05 0.2,0 0.7,-0.02 1.51,-0.05 0.8,-0.03 1.7,-0.08 2.71,-0.15 0.2,0 0.44,0 0.7,0 0.27,0 0.54,0 0.81,0 0.8,0 1.57,-0.02 2.31,-0.05 0.73,-0.03 1.37,-0.05 1.91,-0.05 0.53,0 0.93,0.05 1.2,0.15 0.27,0.1 0.4,0.32 0.4,0.65 0,0.2 -0.08,0.35 -0.25,0.45 -0.17,0.1 -0.35,0.15 -0.55,0.15 -0.07,0 -0.12,0 -0.15,0 -0.03,0 -0.08,0 -0.15,0 -0.27,0 -0.57,0.04 -0.91,0.1 -0.33,0.07 -0.77,0.14 -1.3,0.21 -1.34,0.2 -2.26,0.76 -2.76,1.7 -0.51,0.94 -0.82,2.28 -0.96,4.02 0,0.06 0,0.11 0,0.15 0,0.03 0,0.08 0,0.15 -0.13,1.53 -0.2,3.59 -0.2,6.17 0,2.57 0,7.67 0,15.3l0 13.95c0,7.29 0.72,12.75 2.16,16.36 1.44,3.61 3.23,6.45 5.37,8.53 0.61,0.6 1.21,1.14 1.81,1.6 0.6,0.47 1.21,0.87 1.81,1.21 1.81,1.07 3.65,1.79 5.53,2.16 1.87,0.36 3.88,0.55 6.02,0.55 3.08,0 6.05,-0.67 8.89,-2.01 2.85,-1.34 5.18,-3.08 6.98,-5.22 2.35,-2.88 3.9,-6.4 4.67,-10.58 0.78,-4.19 1.16,-8.85 1.16,-14l0 -12.65c0,-7.56 0,-12.63 0,-15.2 0,-2.58 -0.07,-4.64 -0.2,-6.17 0,-0.07 0,-0.12 0,-0.15 0,-0.04 0,-0.09 0,-0.15 -0.07,-1.74 -0.39,-3.05 -0.96,-3.92 -0.56,-0.87 -1.69,-1.47 -3.36,-1.8 -0.2,-0.07 -0.47,-0.12 -0.8,-0.16 -0.34,-0.03 -0.67,-0.05 -1.01,-0.05 -0.27,-0.06 -0.55,-0.1 -0.85,-0.1 -0.3,0 -0.56,0 -0.76,0 -0.2,0 -0.38,-0.05 -0.55,-0.15 -0.17,-0.1 -0.25,-0.25 -0.25,-0.45 0,-0.33 0.13,-0.55 0.4,-0.65 0.27,-0.1 0.67,-0.15 1.21,-0.15 0.4,0 0.8,0 1.2,0 0.4,0 0.77,0 1.11,0 0.8,0 1.59,0.02 2.36,0.05 0.77,0.03 1.49,0.05 2.16,0.05 1,0.07 1.86,0.12 2.56,0.15 0.7,0.03 1.12,0.05 1.26,0.05 0.2,0 0.6,-0.02 1.2,-0.05 0.6,-0.03 1.31,-0.08 2.11,-0.15 0.33,0 0.69,0 1.05,0 0.37,0 0.72,0 1.06,0 0.53,-0.07 1.05,-0.1 1.56,-0.1 0.5,0 0.98,0 1.45,0 0.54,0 0.94,0.05 1.21,0.15 0.27,0.1 0.4,0.32 0.4,0.65 0,0.2 -0.08,0.35 -0.25,0.45 -0.17,0.1 -0.35,0.15 -0.55,0.15 -0.07,0 -0.12,0 -0.15,0 -0.04,0 -0.09,0 -0.15,0 -0.27,0 -0.57,0.02 -0.91,0.05 -0.33,0.04 -0.77,0.12 -1.3,0.26 -1.34,0.26 -2.26,0.85 -2.77,1.75 -0.5,0.9 -0.82,2.23 -0.95,3.97 0,0.06 0,0.11 0,0.15 0,0.03 0,0.08 0,0.15 -0.13,1.53 -0.2,3.59 -0.2,6.17 0,2.57 0,7.67 0,15.3l0 10.64c0,1.14 -0.02,2.24 -0.05,3.31 -0.04,1.07 -0.09,2.18 -0.15,3.31 -0.27,4.42 -1.04,8.72 -2.31,12.9 -1.28,4.18 -3.52,7.71 -6.73,10.59 -0.67,0.6 -1.36,1.16 -2.06,1.7 -0.71,0.54 -1.39,1 -2.06,1.41 -3.02,1.74 -5.95,2.87 -8.79,3.41 -2.85,0.53 -5.48,0.8 -7.89,0.8 -1.2,0 -3.06,-0.13 -5.57,-0.4 -2.51,-0.27 -5.14,-0.94 -7.89,-2.01 -1.27,-0.53 -2.53,-1.17 -3.76,-1.9 -1.24,-0.74 -2.4,-1.64 -3.47,-2.71 -2.48,-2.35 -4.55,-5.51 -6.23,-9.49 -1.67,-3.98 -2.51,-9.61 -2.51,-16.91l0 -0.1z"/>
   <path class="fil3" d="M186.82 724.23l1.3 48.17c0.14,4.15 0.49,7.04 1.06,8.68 0.57,1.64 1.52,2.66 2.86,3.06 0.2,0.07 0.39,0.12 0.55,0.15 0.17,0.03 0.35,0.05 0.56,0.05 0.8,0.2 1.57,0.32 2.31,0.35 0.73,0.03 1.27,0.05 1.6,0.05 0.27,0 0.47,0.05 0.61,0.15 0.13,0.1 0.2,0.25 0.2,0.45 0,0.27 -0.15,0.45 -0.45,0.56 -0.31,0.09 -0.76,0.15 -1.36,0.15 -1.41,0 -2.71,-0.02 -3.92,-0.06 -1.2,-0.03 -2.27,-0.05 -3.21,-0.05 -0.94,-0.06 -1.71,-0.11 -2.31,-0.15 -0.6,-0.03 -1.01,-0.05 -1.21,-0.05 -0.2,0 -0.62,0.02 -1.25,0.05 -0.64,0.04 -1.36,0.09 -2.16,0.15 -0.87,0 -1.84,0.02 -2.92,0.05 -1.07,0.04 -2.17,0.06 -3.31,0.06 -0.47,0 -0.85,-0.06 -1.16,-0.15 -0.3,-0.11 -0.45,-0.29 -0.45,-0.56 0,-0.2 0.07,-0.35 0.2,-0.45 0.14,-0.1 0.34,-0.15 0.61,-0.15 0.33,0 0.76,-0.02 1.3,-0.05 0.54,-0.03 1.11,-0.12 1.71,-0.25 0.2,-0.07 0.38,-0.12 0.55,-0.15 0.17,-0.03 0.35,-0.08 0.55,-0.15 1.28,-0.34 2.1,-1.41 2.46,-3.21 0.37,-1.81 0.56,-4.99 0.56,-9.54l0.1 -6.32 0 -51.38c0,-1.87 0.08,-3.16 0.25,-3.86 0.17,-0.7 0.45,-1.06 0.85,-1.06 0.2,0 0.49,0.15 0.86,0.46 0.36,0.3 0.72,0.65 1.05,1.05 0.07,0.07 0.14,0.13 0.2,0.2 0.07,0.07 0.1,0.1 0.1,0.1 0.27,0.27 0.51,0.52 0.71,0.75 0.2,0.24 0.4,0.45 0.6,0.65 0.73,0.87 4.32,4.76 10.75,11.65 6.42,6.89 13.52,14.51 21.29,22.88 0.6,0.6 1.19,1.22 1.76,1.85 0.57,0.64 1.12,1.26 1.66,1.86 0.2,0.2 0.4,0.4 0.6,0.6 0.2,0.2 0.4,0.4 0.6,0.6 4.22,4.62 8.19,8.97 11.91,13.05 3.71,4.08 6.24,6.82 7.58,8.23l-1.11 -51.18c-0.06,-3.21 -0.35,-5.49 -0.85,-6.83 -0.5,-1.33 -1.52,-2.2 -3.06,-2.6 -0.2,-0.07 -0.44,-0.12 -0.71,-0.16 -0.26,-0.03 -0.5,-0.04 -0.7,-0.04 -0.73,-0.14 -1.42,-0.22 -2.06,-0.26 -0.63,-0.03 -1.12,-0.05 -1.45,-0.05 -0.34,0 -0.56,-0.06 -0.66,-0.2 -0.1,-0.13 -0.15,-0.3 -0.15,-0.5 0,-0.33 0.19,-0.53 0.55,-0.6 0.37,-0.07 0.86,-0.1 1.46,-0.1 0.2,0 0.39,0 0.55,0 0.17,0 0.32,0 0.45,0 1.01,0 1.98,0.02 2.92,0.05 0.94,0.03 1.81,0.05 2.61,0.05 0.94,0.07 1.76,0.12 2.46,0.15 0.7,0.03 1.19,0.05 1.46,0.05 0.27,0 0.67,-0.02 1.2,-0.05 0.54,-0.03 1.17,-0.08 1.91,-0.15 0.74,0 1.58,-0.02 2.51,-0.05 0.94,-0.03 1.91,-0.05 2.92,-0.05 0.53,0 0.97,0.03 1.3,0.1 0.34,0.07 0.5,0.27 0.5,0.6 0,0.2 -0.1,0.37 -0.3,0.5 -0.2,0.14 -0.47,0.2 -0.8,0.2 -0.27,0 -0.59,0.02 -0.96,0.05 -0.36,0.04 -0.85,0.12 -1.45,0.26 -1.68,0.33 -2.71,1.15 -3.12,2.45 -0.4,1.31 -0.6,3.47 -0.6,6.48l-0.1 7.42 -0.1 51.38c0,3.35 -0.07,5.37 -0.2,6.07 -0.13,0.71 -0.37,1.06 -0.7,1.06 -0.4,0 -1.06,-0.39 -1.96,-1.16 -0.91,-0.77 -2.7,-2.49 -5.38,-5.16 -0.4,-0.41 -2.52,-2.56 -6.38,-6.48 -3.85,-3.91 -8.05,-8.24 -12.6,-12.99 -0.14,-0.14 -0.27,-0.27 -0.4,-0.4 -0.14,-0.14 -0.27,-0.27 -0.4,-0.41 -1.08,-1.2 -2.17,-2.37 -3.27,-3.51 -1.1,-1.13 -2.19,-2.27 -3.26,-3.41 -0.14,-0.13 -0.27,-0.27 -0.41,-0.4 -0.13,-0.14 -0.23,-0.27 -0.3,-0.4 -5.69,-6.16 -10.98,-11.94 -15.87,-17.36 -4.89,-5.42 -8.1,-9 -9.64,-10.74l0 -0.1z"/>
   <path class="fil3" d="M289.08 739.28l0 17.66c0,4.89 0.01,9.22 0.05,13 0.03,3.78 0.18,6.74 0.45,8.88 0.13,1.47 0.45,2.71 0.95,3.71 0.51,1.01 1.49,1.61 2.97,1.81 0.27,0.07 0.55,0.12 0.85,0.15 0.3,0.03 0.62,0.05 0.96,0.05 0.53,0.07 1.05,0.12 1.55,0.15 0.5,0.03 0.89,0.05 1.16,0.05 0.33,0 0.55,0.07 0.65,0.2 0.1,0.14 0.15,0.27 0.15,0.4 0,0.27 -0.13,0.45 -0.4,0.56 -0.27,0.09 -0.67,0.15 -1.21,0.15 -0.33,0 -0.67,0 -1,0 -0.34,0 -0.67,0 -1.01,0 -1.07,0 -2.12,-0.02 -3.16,-0.06 -1.04,-0.03 -1.99,-0.05 -2.86,-0.05 -1.21,-0.06 -2.2,-0.11 -2.97,-0.15 -0.77,-0.03 -1.22,-0.05 -1.35,-0.05 -0.14,0 -0.59,0.02 -1.36,0.05 -0.77,0.04 -1.66,0.09 -2.66,0.15 -0.27,0 -0.54,0 -0.8,0 -0.27,0 -0.57,0 -0.91,0 -0.73,0 -1.47,0.02 -2.21,0.05 -0.73,0.04 -1.37,0.06 -1.91,0.06 -0.53,0 -0.93,-0.06 -1.2,-0.15 -0.27,-0.11 -0.4,-0.29 -0.4,-0.56 0,-0.13 0.06,-0.26 0.2,-0.4 0.13,-0.13 0.33,-0.2 0.6,-0.2 0.2,0 0.44,-0.02 0.7,-0.05 0.27,-0.03 0.54,-0.05 0.81,-0.05 0.26,-0.07 0.53,-0.12 0.8,-0.15 0.27,-0.03 0.5,-0.08 0.7,-0.15 1.01,-0.2 1.69,-0.8 2.06,-1.81 0.37,-1 0.66,-2.24 0.86,-3.71 0.27,-2.14 0.42,-5.1 0.45,-8.88 0.03,-3.78 0.05,-8.08 0.05,-12.9l0 -17.76c0,-7.56 0,-12.63 0,-15.2 0,-2.58 -0.07,-4.64 -0.2,-6.17 0,-0.07 0,-0.12 0,-0.15 0,-0.04 0,-0.09 0,-0.15 -0.07,-1.74 -0.37,-3.05 -0.91,-3.92 -0.53,-0.87 -1.37,-1.44 -2.51,-1.71 -0.13,-0.06 -0.26,-0.11 -0.4,-0.14 -0.13,-0.04 -0.27,-0.06 -0.4,-0.06 -0.47,-0.06 -0.91,-0.11 -1.31,-0.15 -0.4,-0.03 -0.73,-0.05 -1,-0.05 -0.2,0 -0.39,-0.05 -0.55,-0.15 -0.17,-0.1 -0.25,-0.25 -0.25,-0.45 0,-0.33 0.13,-0.55 0.4,-0.65 0.26,-0.1 0.67,-0.15 1.2,-0.15 0.54,0 1.18,0 1.91,0 0.74,0 1.47,0.03 2.21,0.1 0.34,0 0.67,0 1.01,0 0.33,0 0.66,0 1,0 1,0.07 1.89,0.12 2.66,0.15 0.77,0.03 1.22,0.05 1.36,0.05 0.13,0 0.58,-0.02 1.35,-0.05 0.77,-0.03 1.66,-0.08 2.67,-0.15 0.26,0 0.53,0 0.8,0 0.27,0 0.57,0 0.9,0 0.74,0 1.48,-0.02 2.21,-0.05 0.74,-0.03 1.38,-0.05 1.91,-0.05 0.54,0 0.94,0.05 1.21,0.15 0.27,0.1 0.4,0.32 0.4,0.65 0,0.2 -0.08,0.35 -0.25,0.45 -0.17,0.1 -0.35,0.15 -0.55,0.15 -0.07,0 -0.12,0 -0.15,0 -0.04,0 -0.09,0 -0.16,0 -0.26,0 -0.56,0.04 -0.9,0.1 -0.33,0.07 -0.77,0.14 -1.31,0.21 -1.33,0.26 -2.26,0.85 -2.76,1.75 -0.5,0.9 -0.82,2.23 -0.95,3.97 0,0.06 0,0.11 0,0.15 0,0.03 0,0.08 0,0.15 -0.14,1.53 -0.2,3.59 -0.2,6.17 0,2.57 0,7.67 0,15.3l0 -0.1z"/>
   <path class="fil3" d="M327.35 722.32l0.1 0.1 19.19 51.38c1.2,-2.67 2.66,-6.12 4.37,-10.33 1.7,-4.22 3.46,-8.63 5.27,-13.25 0.13,-0.4 0.27,-0.79 0.4,-1.15 0.13,-0.37 0.27,-0.72 0.4,-1.06 2.55,-6.49 4.89,-12.59 7.03,-18.31 2.15,-5.72 3.52,-9.59 4.12,-11.59 0.27,-0.74 0.49,-1.44 0.66,-2.11 0.16,-0.67 0.25,-1.24 0.25,-1.71 0,-0.13 0,-0.25 0,-0.35 0,-0.1 -0.04,-0.22 -0.1,-0.35 -0.07,-0.33 -0.2,-0.63 -0.4,-0.9 -0.21,-0.27 -0.47,-0.5 -0.81,-0.71 -0.27,-0.06 -0.53,-0.13 -0.8,-0.2 -0.27,-0.06 -0.57,-0.1 -0.91,-0.1 -0.33,-0.06 -0.68,-0.1 -1.05,-0.1 -0.37,0 -0.72,0 -1.06,0 -0.26,0 -0.51,-0.03 -0.75,-0.1 -0.23,-0.06 -0.35,-0.23 -0.35,-0.5 0,-0.33 0.17,-0.55 0.5,-0.65 0.34,-0.1 0.91,-0.15 1.71,-0.15 0.33,0 0.65,0 0.95,0 0.3,0 0.59,0 0.86,0 0.73,0 1.45,0.02 2.16,0.05 0.7,0.03 1.35,0.05 1.95,0.05 0.94,0.07 1.76,0.12 2.47,0.15 0.7,0.03 1.18,0.05 1.45,0.05 0.14,0 0.49,-0.02 1.06,-0.05 0.57,-0.03 1.22,-0.08 1.96,-0.15 0.33,0 0.68,0 1.05,0 0.37,0 0.76,0 1.16,0 0.47,-0.07 0.92,-0.1 1.35,-0.1 0.44,0 0.86,0 1.26,0 0.53,0 0.95,0.05 1.25,0.15 0.31,0.1 0.46,0.28 0.46,0.55 0,0.27 -0.11,0.45 -0.31,0.55 -0.2,0.1 -0.5,0.15 -0.9,0.15 -0.27,0 -0.77,0.04 -1.51,0.1 -0.73,0.07 -1.5,0.27 -2.31,0.61 -0.2,0.06 -0.38,0.13 -0.55,0.2 -0.17,0.06 -0.32,0.16 -0.45,0.3 -0.67,0.47 -1.42,1.3 -2.26,2.51 -0.84,1.2 -1.93,3.51 -3.27,6.92 -0.53,1.41 -1.91,4.77 -4.11,10.09 -2.21,5.31 -4.59,11.05 -7.14,17.21 -3.08,7.29 -5.74,13.56 -7.98,18.81 -2.25,5.26 -3.94,9.12 -5.08,11.59 -1.13,2.41 -1.94,4.15 -2.41,5.22 -0.46,1.07 -0.87,1.78 -1.2,2.11 -0.13,0.07 -0.24,0.12 -0.3,0.15 -0.07,0.03 -0.17,0.05 -0.3,0.05 -0.2,0 -0.39,-0.05 -0.56,-0.15 -0.16,-0.1 -0.31,-0.22 -0.45,-0.35 -0.33,-0.4 -0.69,-1.04 -1.05,-1.91 -0.37,-0.87 -0.89,-2.11 -1.56,-3.71l-4.12 -10.34 -20.49 -51.38c-0.27,-0.67 -0.54,-1.29 -0.8,-1.85 -0.27,-0.57 -0.54,-1.09 -0.81,-1.56 -0.73,-1.34 -1.54,-2.27 -2.41,-2.81 -0.87,-0.54 -1.94,-1 -3.21,-1.41 -0.14,0 -0.25,-0.01 -0.35,-0.05 -0.11,-0.03 -0.22,-0.08 -0.36,-0.15 -0.67,-0.06 -1.27,-0.11 -1.8,-0.15 -0.54,-0.03 -0.94,-0.05 -1.21,-0.05 -0.34,0 -0.55,-0.06 -0.65,-0.2 -0.1,-0.13 -0.15,-0.3 -0.15,-0.5 0,-0.33 0.23,-0.53 0.7,-0.6 0.47,-0.07 1.07,-0.1 1.81,-0.1 0.4,0 0.8,0 1.2,0 0.4,0 0.84,0 1.31,0 0.8,0 1.61,0.02 2.41,0.05 0.8,0.03 1.57,0.05 2.31,0.05 1.07,0.07 2.03,0.12 2.86,0.15 0.84,0.03 1.39,0.05 1.66,0.05 0.27,0 0.72,-0.02 1.36,-0.05 0.63,-0.03 1.39,-0.08 2.26,-0.15 0.6,0 1.22,-0.02 1.85,-0.05 0.64,-0.03 1.29,-0.05 1.96,-0.05 0.34,0 0.66,0 0.96,0 0.3,0 0.62,0 0.95,0 0.94,0 1.63,0.05 2.06,0.15 0.44,0.1 0.65,0.28 0.65,0.55 0,0.27 -0.08,0.45 -0.25,0.55 -0.16,0.1 -0.42,0.15 -0.75,0.15 -0.27,0 -0.55,0 -0.85,0 -0.3,0 -0.59,0.04 -0.86,0.1 -0.4,0 -0.78,0.04 -1.15,0.1 -0.37,0.07 -0.69,0.17 -0.96,0.31 -0.4,0.2 -0.7,0.43 -0.9,0.7 -0.2,0.27 -0.34,0.53 -0.4,0.8 0,0.07 0,0.15 0,0.25 0,0.1 0,0.19 0,0.25 0,0.67 0.26,1.74 0.8,3.21 0.54,1.48 1.17,3.18 1.91,5.12l0 -0.1z"/>
   <path class="fil3" d="M399.47 756.94l0 -17.66c0,-7.56 0,-12.63 0,-15.2 0,-2.58 -0.06,-4.64 -0.2,-6.17 0,-0.07 0,-0.12 0,-0.15 0,-0.04 0,-0.09 0,-0.15 -0.06,-1.74 -0.38,-3.05 -0.95,-3.92 -0.57,-0.87 -1.69,-1.47 -3.37,-1.8 -0.2,-0.07 -0.47,-0.12 -0.8,-0.16 -0.34,-0.03 -0.67,-0.05 -1,-0.05 -0.27,-0.06 -0.56,-0.1 -0.86,-0.1 -0.3,0 -0.55,0 -0.75,0 -0.2,0 -0.39,-0.05 -0.56,-0.15 -0.16,-0.1 -0.25,-0.25 -0.25,-0.45 0,-0.33 0.14,-0.55 0.41,-0.65 0.26,-0.1 0.67,-0.15 1.2,-0.15 0.54,0 1.09,0 1.66,0 0.57,0 1.15,0 1.76,0 0.67,0.07 1.32,0.1 1.96,0.1 0.63,0 1.25,0 1.85,0 1.07,0.07 2,0.12 2.77,0.15 0.77,0.03 1.22,0.05 1.35,0.05 0.2,0 1.49,0 3.87,0 2.38,0 4.94,0 7.68,0 2.62,0 5.04,-0.02 7.29,-0.05 2.24,-0.03 3.63,-0.05 4.17,-0.05 0.93,-0.07 1.79,-0.15 2.56,-0.25 0.77,-0.1 1.35,-0.18 1.75,-0.25 0.14,0 0.26,-0.04 0.36,-0.1 0.1,-0.07 0.18,-0.1 0.25,-0.1 0.2,-0.07 0.36,-0.14 0.5,-0.2 0.13,-0.07 0.27,-0.1 0.4,-0.1 0.13,0 0.24,0.08 0.3,0.25 0.07,0.16 0.1,0.38 0.1,0.65 0,0.27 -0.05,0.6 -0.15,1 -0.1,0.4 -0.21,0.97 -0.35,1.71 -0.07,0.27 -0.12,0.57 -0.15,0.9 -0.03,0.34 -0.08,0.7 -0.15,1.11 0,0.26 -0.03,0.72 -0.1,1.35 -0.07,0.64 -0.13,1.32 -0.2,2.06 0,0.2 -0.02,0.4 -0.05,0.6 -0.04,0.2 -0.05,0.4 -0.05,0.6 0,0.4 -0.02,0.79 -0.05,1.16 -0.04,0.36 -0.09,0.65 -0.15,0.85 0,0.07 0,0.12 0,0.15 0,0.03 0,0.05 0,0.05 -0.07,0.2 -0.15,0.4 -0.25,0.6 -0.1,0.2 -0.26,0.3 -0.46,0.3 -0.26,0 -0.47,-0.11 -0.6,-0.35 -0.13,-0.23 -0.2,-0.55 -0.2,-0.95 0,-0.27 -0.02,-0.6 -0.05,-1.01 -0.03,-0.4 -0.08,-0.83 -0.15,-1.3 -0.07,-0.2 -0.14,-0.42 -0.2,-0.65 -0.07,-0.24 -0.14,-0.45 -0.2,-0.65 -0.34,-0.81 -0.92,-1.51 -1.76,-2.11 -0.84,-0.6 -2.63,-1.04 -5.38,-1.31 -0.4,-0.06 -1.25,-0.11 -2.56,-0.15 -1.3,-0.03 -2.73,-0.05 -4.27,-0.05 -1.6,-0.06 -3.09,-0.1 -4.47,-0.1 -1.37,0 -2.19,0 -2.46,0 -0.2,0 -0.35,0.09 -0.45,0.25 -0.1,0.17 -0.15,0.42 -0.15,0.76l0 27.69c0,0.41 0.03,0.69 0.1,0.86 0.07,0.16 0.24,0.25 0.5,0.25 0.34,0 1.31,0 2.92,0 1.6,0 3.34,0 5.22,0 1.67,0 3.26,-0.02 4.77,-0.05 1.51,-0.04 2.53,-0.09 3.06,-0.15 1.21,-0.14 2.18,-0.29 2.92,-0.45 0.73,-0.17 1.34,-0.49 1.81,-0.96 0.33,-0.4 0.62,-0.72 0.85,-0.95 0.23,-0.24 0.45,-0.35 0.65,-0.35 0.14,0 0.25,0.05 0.35,0.15 0.11,0.1 0.16,0.31 0.16,0.65 0,0.2 -0.05,0.57 -0.16,1.1 -0.1,0.54 -0.21,1.24 -0.35,2.11 -0.06,0.34 -0.11,0.7 -0.15,1.1 -0.03,0.41 -0.08,0.84 -0.15,1.31 -0.07,0.33 -0.12,0.74 -0.15,1.2 -0.03,0.47 -0.05,0.94 -0.05,1.41 -0.07,0.87 -0.12,1.67 -0.15,2.41 -0.03,0.73 -0.05,1.2 -0.05,1.4 0,0.07 0,0.15 0,0.25 0,0.1 0,0.19 0,0.25 0,0.41 -0.05,0.74 -0.15,1.01 -0.1,0.27 -0.28,0.4 -0.55,0.4 -0.27,0 -0.46,-0.09 -0.56,-0.25 -0.1,-0.17 -0.15,-0.39 -0.15,-0.65 0,-0.54 -0.01,-1.06 -0.05,-1.56 -0.03,-0.5 -0.15,-1.09 -0.35,-1.76 -0.07,-0.13 -0.12,-0.26 -0.15,-0.4 -0.03,-0.13 -0.08,-0.26 -0.15,-0.4 -0.27,-0.6 -0.75,-1.17 -1.46,-1.7 -0.7,-0.54 -1.85,-0.87 -3.46,-1.01 -0.6,-0.06 -1.56,-0.13 -2.86,-0.2 -1.31,-0.07 -2.67,-0.1 -4.07,-0.1 -1.68,-0.07 -3.22,-0.12 -4.62,-0.15 -1.41,-0.03 -2.35,-0.05 -2.82,-0.05 -0.26,0 -0.45,0.07 -0.55,0.2 -0.1,0.13 -0.15,0.3 -0.15,0.5l0 8.73c0,0.6 0,1.41 0,2.41 0,1.01 0,2.08 0,3.21 0,0.47 0,0.92 0,1.36 0,0.43 0,0.88 0,1.35 0,1.94 0,3.78 0,5.52 0,1.74 0,2.88 0,3.41 0.13,3.48 0.89,5.72 2.26,6.73 1.37,1 4.5,1.5 9.39,1.5 0.67,0 1.43,0 2.26,0 0.84,0 1.69,-0.03 2.57,-0.1 0.87,-0.06 1.72,-0.18 2.56,-0.35 0.83,-0.17 1.59,-0.38 2.26,-0.65 1.34,-0.54 2.36,-1.36 3.06,-2.46 0.7,-1.1 1.22,-2.69 1.56,-4.77 0.13,-0.53 0.25,-0.92 0.35,-1.15 0.1,-0.23 0.28,-0.35 0.55,-0.35 0.27,0 0.44,0.13 0.5,0.4 0.07,0.27 0.1,0.57 0.1,0.9 0,0 0,0.02 0,0.05 0,0.04 0,0.09 0,0.15 0,0.2 -0.05,0.82 -0.15,1.86 -0.1,1.04 -0.25,2.12 -0.45,3.26 0,0.34 -0.03,0.69 -0.1,1.05 -0.07,0.37 -0.1,0.72 -0.1,1.06 -0.13,0.47 -0.23,0.94 -0.3,1.4 -0.07,0.47 -0.13,0.84 -0.2,1.11 -0.34,1.27 -0.84,2.01 -1.51,2.21 -0.67,0.2 -2.01,0.3 -4.02,0.3 -3.81,0 -7.11,-0.04 -9.89,-0.1 -2.78,-0.07 -5.14,-0.14 -7.08,-0.2 -2.01,-0.07 -3.64,-0.14 -4.88,-0.2 -1.23,-0.07 -2.22,-0.11 -2.96,-0.11 -0.07,0 -0.22,0 -0.45,0 -0.24,0 -0.52,0.04 -0.85,0.11 -0.34,0 -0.74,0 -1.21,0 -0.47,0 -0.97,0 -1.51,0 -0.26,0 -0.55,0.01 -0.85,0.05 -0.3,0.03 -0.59,0.04 -0.85,0.04 -0.74,0 -1.48,0.02 -2.21,0.05 -0.74,0.04 -1.38,0.06 -1.91,0.06 -0.54,0 -0.94,-0.06 -1.21,-0.15 -0.27,-0.11 -0.4,-0.29 -0.4,-0.56 0,-0.13 0.07,-0.26 0.2,-0.4 0.13,-0.13 0.34,-0.2 0.6,-0.2 0.2,0 0.44,-0.02 0.71,-0.05 0.27,-0.03 0.53,-0.05 0.8,-0.05 0.27,-0.07 0.54,-0.12 0.8,-0.15 0.27,-0.03 0.51,-0.08 0.71,-0.15 1,-0.2 1.69,-0.8 2.06,-1.81 0.36,-1 0.65,-2.24 0.85,-3.71 0.27,-2.14 0.42,-5.1 0.45,-8.88 0.04,-3.78 0.05,-8.08 0.05,-12.9l0 -0.1z"/>
   <path class="fil3" d="M460.85 756.94l0 -17.66c0,-7.56 0,-12.63 0,-15.2 0,-2.58 -0.07,-4.64 -0.2,-6.17 0,-0.07 0,-0.12 0,-0.15 0,-0.04 0,-0.09 0,-0.15 -0.07,-1.74 -0.39,-3.05 -0.96,-3.92 -0.57,-0.87 -1.69,-1.47 -3.36,-1.8 -0.2,-0.07 -0.47,-0.12 -0.81,-0.16 -0.33,-0.03 -0.66,-0.05 -1,-0.05 -0.27,-0.06 -0.55,-0.1 -0.85,-0.1 -0.3,0 -0.56,0 -0.76,0 -0.2,0 -0.38,-0.05 -0.55,-0.15 -0.17,-0.1 -0.25,-0.25 -0.25,-0.45 0,-0.33 0.13,-0.55 0.4,-0.65 0.27,-0.1 0.67,-0.15 1.21,-0.15 0.53,0 1.08,0 1.65,0 0.57,0 1.16,0 1.76,0 0.67,0.07 1.32,0.1 1.96,0.1 0.64,0 1.26,0 1.86,0 1.07,0.07 1.99,0.12 2.76,0.15 0.77,0.03 1.22,0.05 1.36,0.05 0.27,0 0.88,-0.02 1.86,-0.05 0.97,-0.03 2.09,-0.08 3.36,-0.15 0.2,0 0.42,0 0.65,0 0.24,0 0.46,0 0.66,0 1,0 1.97,-0.02 2.91,-0.05 0.94,-0.03 1.74,-0.05 2.41,-0.05 0.74,0 1.49,0.02 2.26,0.05 0.77,0.03 1.53,0.05 2.26,0.05 2.48,0.2 4.91,0.6 7.28,1.2 2.38,0.61 4.61,1.64 6.68,3.11 0.41,0.27 0.82,0.61 1.26,1.01 0.43,0.4 0.89,0.87 1.36,1.4 1.07,1.27 2.05,2.86 2.96,4.77 0.9,1.91 1.35,4.06 1.35,6.47 0,0.4 0,0.79 0,1.16 0,0.36 -0.03,0.72 -0.09,1.05 -0.27,3.41 -1.34,6.84 -3.22,10.29 -1.88,3.44 -4.86,7.04 -8.94,10.78 4.15,5.29 7.97,10.11 11.45,14.46 3.48,4.34 6.66,8.09 9.54,11.23 2.75,2.88 5.16,4.75 7.24,5.62 2.07,0.87 3.75,1.41 5.02,1.61 0.94,0.13 1.76,0.22 2.46,0.25 0.7,0.03 1.19,0.05 1.46,0.05 0.26,0 0.48,0.07 0.65,0.2 0.17,0.14 0.25,0.27 0.25,0.4 0,0.27 -0.17,0.45 -0.5,0.56 -0.34,0.09 -0.97,0.15 -1.91,0.15l-7.13 0c-2.75,0 -4.87,-0.12 -6.38,-0.36 -1.51,-0.23 -2.9,-0.68 -4.17,-1.35 0,0 -0.02,-0.02 -0.05,-0.05 -0.03,-0.03 -0.08,-0.05 -0.15,-0.05 -0.6,-0.34 -1.17,-0.7 -1.71,-1.1 -0.53,-0.41 -1.07,-0.84 -1.61,-1.31 -1.54,-1.34 -3.11,-3.04 -4.72,-5.12 -1.6,-2.07 -3.44,-4.48 -5.52,-7.22 -0.27,-0.34 -0.55,-0.69 -0.85,-1.06 -0.31,-0.36 -0.59,-0.75 -0.86,-1.15 -0.2,-0.27 -0.4,-0.54 -0.6,-0.8 -0.2,-0.27 -0.4,-0.57 -0.6,-0.91 -1.75,-2.2 -3.34,-4.33 -4.78,-6.37 -1.44,-2.04 -2.56,-3.56 -3.36,-4.56 -0.07,-0.07 -0.12,-0.12 -0.15,-0.15 -0.04,-0.04 -0.08,-0.09 -0.15,-0.16 -0.14,-0.06 -0.29,-0.13 -0.45,-0.2 -0.17,-0.06 -0.36,-0.1 -0.56,-0.1l-12.35 -0.3c-0.27,0.07 -0.45,0.17 -0.55,0.3 -0.1,0.14 -0.16,0.34 -0.16,0.61l0 2.3c0,4.89 0.02,9.22 0.06,13 0.03,3.78 0.18,6.74 0.45,8.88 0.13,1.47 0.45,2.71 0.95,3.71 0.5,1.01 1.49,1.61 2.96,1.81 0.27,0.07 0.56,0.12 0.86,0.15 0.3,0.03 0.62,0.05 0.95,0.05 0.54,0.07 1.06,0.12 1.56,0.15 0.5,0.03 0.89,0.05 1.15,0.05 0.34,0 0.56,0.07 0.66,0.2 0.1,0.14 0.15,0.27 0.15,0.4 0,0.27 -0.14,0.45 -0.4,0.56 -0.27,0.09 -0.67,0.15 -1.21,0.15 -0.33,0 -0.67,0 -1,0 -0.34,0 -0.67,0 -1.01,0 -1.07,0 -2.12,-0.02 -3.16,-0.06 -1.04,-0.03 -1.99,-0.05 -2.86,-0.05 -1.21,-0.06 -2.2,-0.11 -2.97,-0.15 -0.77,-0.03 -1.22,-0.05 -1.35,-0.05 0,0 -0.36,0.02 -1.06,0.05 -0.7,0.04 -1.56,0.09 -2.56,0.15 -0.34,0 -0.65,0 -0.95,0 -0.31,0 -0.62,0 -0.96,0 -0.74,0.07 -1.44,0.11 -2.11,0.11 -0.67,0 -1.27,0 -1.81,0 -0.53,0 -0.93,-0.06 -1.2,-0.15 -0.27,-0.11 -0.4,-0.29 -0.4,-0.56 0,-0.13 0.06,-0.26 0.2,-0.4 0.13,-0.13 0.33,-0.2 0.6,-0.2 0.2,0 0.44,-0.02 0.7,-0.05 0.27,-0.03 0.54,-0.05 0.81,-0.05 0.26,-0.07 0.53,-0.12 0.8,-0.15 0.27,-0.03 0.5,-0.08 0.7,-0.15 1.01,-0.2 1.69,-0.8 2.06,-1.81 0.37,-1 0.66,-2.24 0.86,-3.71 0.26,-2.14 0.42,-5.1 0.45,-8.88 0.03,-3.78 0.05,-8.08 0.05,-12.9l0 -0.1zm8.03 -41.84l0 32.91c0,0.34 0.06,0.6 0.16,0.8 0.1,0.21 0.28,0.37 0.55,0.51 0.73,0.4 2.02,0.75 3.87,1.05 1.84,0.3 3.8,0.49 5.87,0.55 0.13,0 0.27,0 0.4,0 0.14,0 0.27,0 0.4,0 0.54,0 1.09,-0.01 1.66,-0.05 0.57,-0.03 1.16,-0.12 1.76,-0.25 0.67,-0.13 1.36,-0.32 2.06,-0.55 0.7,-0.23 1.39,-0.59 2.06,-1.05 1.74,-1.21 3.21,-3.13 4.42,-5.77 1.2,-2.65 1.81,-5.91 1.81,-9.79 0,-6.29 -1.58,-11.2 -4.72,-14.75 -3.15,-3.55 -7.4,-5.32 -12.76,-5.32 -1.48,0 -2.83,0.07 -4.07,0.2 -1.24,0.13 -2.13,0.27 -2.66,0.4 -0.27,0.07 -0.47,0.2 -0.6,0.4 -0.14,0.2 -0.21,0.47 -0.21,0.81l0 -0.1z"/>
   <path class="fil3" d="M543.72 787.45c-2.34,0 -4.65,-0.2 -6.93,-0.6 -2.28,-0.4 -4.45,-1.07 -6.53,-2.01 -0.07,-0.07 -0.13,-0.12 -0.2,-0.15 -0.07,-0.03 -0.13,-0.05 -0.2,-0.05 -0.54,-0.33 -0.86,-0.72 -0.96,-1.15 -0.1,-0.44 -0.15,-1.26 -0.15,-2.46 0,-1.41 0.04,-2.75 0.1,-4.02 0.07,-1.27 0.14,-2.37 0.2,-3.31 0,-0.73 0.04,-1.39 0.11,-1.96 0.06,-0.56 0.1,-1.02 0.1,-1.35 0.06,-0.54 0.15,-0.94 0.25,-1.2 0.1,-0.27 0.28,-0.41 0.55,-0.41 0.33,0 0.53,0.09 0.6,0.26 0.07,0.16 0.1,0.45 0.1,0.85 0,0.47 0.02,1.02 0.05,1.65 0.04,0.64 0.12,1.33 0.25,2.06 0.74,3.68 2.56,6.31 5.48,7.88 2.91,1.57 6.04,2.36 9.39,2.36 4.49,0 7.92,-1.26 10.3,-3.77 2.37,-2.5 3.7,-5.26 3.97,-8.27 0.06,-0.21 0.09,-0.42 0.09,-0.66 0,-0.23 0,-0.45 0,-0.65 0,-1.67 -0.18,-3.21 -0.55,-4.62 -0.37,-1.4 -0.95,-2.77 -1.76,-4.11 -0.93,-1.4 -2.16,-2.84 -3.66,-4.31 -1.51,-1.48 -3.37,-3.15 -5.58,-5.02l-4.52 -3.82c-4.42,-3.54 -7.55,-6.77 -9.39,-9.68 -1.84,-2.91 -3,-5.77 -3.47,-8.58 -0.06,-0.6 -0.11,-1.19 -0.14,-1.76 -0.04,-0.56 -0.06,-1.15 -0.06,-1.75 0,-5.35 1.88,-9.7 5.63,-13.05 3.75,-3.34 8.8,-5.02 15.17,-5.02 1.94,0 3.66,0.09 5.17,0.25 1.51,0.17 2.9,0.42 4.17,0.76 0.94,0.2 1.66,0.33 2.16,0.4 0.5,0.07 0.95,0.1 1.35,0.1 0.41,0 0.67,0.05 0.81,0.15 0.13,0.1 0.2,0.28 0.2,0.55 0,0.14 -0.02,0.44 -0.05,0.91 -0.03,0.46 -0.08,1.13 -0.15,2 -0.07,0.87 -0.12,1.94 -0.15,3.21 -0.04,1.27 -0.05,2.78 -0.05,4.52 0,0.8 -0.05,1.39 -0.15,1.76 -0.1,0.36 -0.29,0.55 -0.55,0.55 -0.27,0 -0.46,-0.12 -0.56,-0.35 -0.1,-0.24 -0.18,-0.56 -0.25,-0.96 0,-0.27 -0.05,-0.62 -0.15,-1.05 -0.1,-0.44 -0.18,-0.89 -0.25,-1.36 -0.13,-0.53 -0.29,-1.03 -0.45,-1.5 -0.17,-0.47 -0.32,-0.84 -0.46,-1.1 -0.13,-0.27 -0.36,-0.62 -0.7,-1.06 -0.33,-0.43 -0.83,-0.92 -1.5,-1.45 -0.94,-0.74 -2.23,-1.39 -3.87,-1.96 -1.64,-0.57 -3.8,-0.85 -6.48,-0.85 -3.48,0 -6.41,1.02 -8.79,3.06 -2.38,2.04 -3.57,4.9 -3.57,8.58 0,1 0.09,1.94 0.25,2.81 0.17,0.87 0.46,1.7 0.86,2.51 0.8,1.6 2.09,3.31 3.87,5.11 1.77,1.81 4.2,3.99 7.28,6.53l2.81 2.1c3.75,3.02 6.66,5.74 8.74,8.18 2.08,2.45 3.58,4.84 4.52,7.18 0.54,1.34 0.9,2.69 1.1,4.06 0.21,1.37 0.31,2.79 0.31,4.27 0,1.14 -0.15,2.52 -0.45,4.16 -0.31,1.64 -0.89,3.33 -1.76,5.07 -0.67,1.34 -1.51,2.64 -2.51,3.91 -1.01,1.27 -2.28,2.45 -3.82,3.52 -2.14,1.47 -4.52,2.52 -7.13,3.16 -2.62,0.63 -5.29,0.95 -8.04,0.95z"/>
   <path class="fil3" d="M602.49 739.28l0 17.66c0,4.89 0.01,9.22 0.05,13 0.03,3.78 0.18,6.74 0.45,8.88 0.13,1.47 0.45,2.71 0.95,3.71 0.5,1.01 1.49,1.61 2.96,1.81 0.27,0.07 0.56,0.12 0.86,0.15 0.3,0.03 0.62,0.05 0.95,0.05 0.54,0.07 1.06,0.12 1.56,0.15 0.5,0.03 0.89,0.05 1.15,0.05 0.34,0 0.56,0.07 0.66,0.2 0.1,0.14 0.15,0.27 0.15,0.4 0,0.27 -0.14,0.45 -0.4,0.56 -0.27,0.09 -0.67,0.15 -1.21,0.15 -0.33,0 -0.67,0 -1,0 -0.34,0 -0.67,0 -1.01,0 -1.07,0 -2.12,-0.02 -3.16,-0.06 -1.04,-0.03 -1.99,-0.05 -2.87,-0.05 -1.2,-0.06 -2.19,-0.11 -2.96,-0.15 -0.77,-0.03 -1.22,-0.05 -1.35,-0.05 -0.14,0 -0.59,0.02 -1.36,0.05 -0.77,0.04 -1.66,0.09 -2.66,0.15 -0.27,0 -0.54,0 -0.81,0 -0.26,0 -0.57,0 -0.9,0 -0.74,0 -1.47,0.02 -2.21,0.05 -0.74,0.04 -1.37,0.06 -1.91,0.06 -0.53,0 -0.94,-0.06 -1.2,-0.15 -0.27,-0.11 -0.41,-0.29 -0.41,-0.56 0,-0.13 0.07,-0.26 0.21,-0.4 0.13,-0.13 0.33,-0.2 0.6,-0.2 0.2,0 0.43,-0.02 0.7,-0.05 0.27,-0.03 0.54,-0.05 0.81,-0.05 0.26,-0.07 0.53,-0.12 0.8,-0.15 0.27,-0.03 0.5,-0.08 0.7,-0.15 1.01,-0.2 1.69,-0.8 2.06,-1.81 0.37,-1 0.65,-2.24 0.85,-3.71 0.27,-2.14 0.42,-5.1 0.46,-8.88 0.03,-3.78 0.05,-8.08 0.05,-12.9l0 -17.76c0,-7.56 0,-12.63 0,-15.2 0,-2.58 -0.07,-4.64 -0.2,-6.17 0,-0.07 0,-0.12 0,-0.15 0,-0.04 0,-0.09 0,-0.15 -0.07,-1.74 -0.37,-3.05 -0.91,-3.92 -0.53,-0.87 -1.37,-1.44 -2.51,-1.71 -0.13,-0.06 -0.27,-0.11 -0.4,-0.14 -0.14,-0.04 -0.27,-0.06 -0.4,-0.06 -0.47,-0.06 -0.91,-0.11 -1.31,-0.15 -0.4,-0.03 -0.74,-0.05 -1,-0.05 -0.2,0 -0.39,-0.05 -0.56,-0.15 -0.16,-0.1 -0.25,-0.25 -0.25,-0.45 0,-0.33 0.14,-0.55 0.4,-0.65 0.27,-0.1 0.67,-0.15 1.21,-0.15 0.54,0 1.17,0 1.91,0 0.74,0 1.47,0.03 2.21,0.1 0.33,0 0.67,0 1,0 0.34,0 0.67,0 1.01,0 1,0.07 1.89,0.12 2.66,0.15 0.77,0.03 1.22,0.05 1.36,0.05 0.13,0 0.58,-0.02 1.35,-0.05 0.77,-0.03 1.66,-0.08 2.66,-0.15 0.27,0 0.54,0 0.81,0 0.27,0 0.57,0 0.9,0 0.74,0 1.48,-0.02 2.21,-0.05 0.74,-0.03 1.37,-0.05 1.91,-0.05 0.54,0 0.94,0.05 1.21,0.15 0.26,0.1 0.4,0.32 0.4,0.65 0,0.2 -0.09,0.35 -0.25,0.45 -0.17,0.1 -0.36,0.15 -0.56,0.15 -0.06,0 -0.11,0 -0.15,0 -0.03,0 -0.08,0 -0.15,0 -0.27,0 -0.57,0.04 -0.9,0.1 -0.34,0.07 -0.77,0.14 -1.31,0.21 -1.34,0.26 -2.26,0.85 -2.76,1.75 -0.5,0.9 -0.82,2.23 -0.95,3.97 0,0.06 0,0.11 0,0.15 0,0.03 0,0.08 0,0.15 -0.14,1.53 -0.2,3.59 -0.2,6.17 0,2.57 0,7.67 0,15.3l0 -0.1z"/>
   <path class="fil3" d="M659.64 714.39l0 42.55c0,4.89 0.02,9.22 0.05,13 0.04,3.78 0.19,6.74 0.45,8.88 0.14,1.47 0.46,2.71 0.96,3.71 0.5,1.01 1.49,1.61 2.96,1.81 0.27,0.07 0.55,0.12 0.86,0.15 0.3,0.03 0.61,0.05 0.95,0.05 0.53,0.07 1.05,0.12 1.56,0.15 0.5,0.03 0.88,0.05 1.15,0.05 0.34,0 0.55,0.07 0.66,0.2 0.09,0.14 0.15,0.27 0.15,0.4 0,0.27 -0.14,0.45 -0.41,0.56 -0.26,0.09 -0.67,0.15 -1.2,0.15 -0.34,0 -0.67,0 -1.01,0 -0.33,0 -0.67,0 -1,0 -1.07,0 -2.13,-0.02 -3.17,-0.06 -1.03,-0.03 -1.99,-0.05 -2.86,-0.05 -1.2,-0.06 -2.19,-0.11 -2.96,-0.15 -0.77,-0.03 -1.22,-0.05 -1.36,-0.05 -0.13,0 -0.58,0.02 -1.35,0.05 -0.77,0.04 -1.66,0.09 -2.67,0.15 -0.26,0 -0.53,0 -0.8,0 -0.27,0 -0.57,0 -0.9,0 -0.74,0 -1.48,0.02 -2.21,0.05 -0.74,0.04 -1.38,0.06 -1.91,0.06 -0.54,0 -0.94,-0.06 -1.21,-0.15 -0.26,-0.11 -0.4,-0.29 -0.4,-0.56 0,-0.13 0.07,-0.26 0.2,-0.4 0.14,-0.13 0.34,-0.2 0.61,-0.2 0.2,0 0.43,-0.02 0.7,-0.05 0.27,-0.03 0.53,-0.05 0.8,-0.05 0.27,-0.07 0.54,-0.12 0.81,-0.15 0.26,-0.03 0.5,-0.08 0.7,-0.15 1,-0.2 1.69,-0.8 2.06,-1.81 0.37,-1 0.65,-2.24 0.85,-3.71 0.27,-2.14 0.42,-5.1 0.45,-8.88 0.04,-3.78 0.05,-8.08 0.05,-12.9l0 -42.65 -14.86 0.2c-3.08,0.14 -5.36,0.42 -6.83,0.86 -1.48,0.43 -2.61,1.25 -3.42,2.46 -0.53,0.87 -0.92,1.52 -1.15,1.95 -0.24,0.44 -0.42,0.82 -0.56,1.16 -0.13,0.4 -0.28,0.67 -0.45,0.8 -0.17,0.13 -0.35,0.2 -0.55,0.2 -0.13,0 -0.25,-0.08 -0.35,-0.25 -0.1,-0.17 -0.15,-0.38 -0.15,-0.65 0,-0.27 0.1,-0.91 0.3,-1.91 0.2,-1 0.43,-2.11 0.7,-3.31 0,-0.07 0.02,-0.14 0.05,-0.2 0.04,-0.07 0.05,-0.14 0.05,-0.2 0.27,-1.14 0.5,-2.18 0.7,-3.11 0.21,-0.94 0.34,-1.51 0.41,-1.71 0.06,-0.13 0.11,-0.27 0.15,-0.4 0.03,-0.13 0.08,-0.27 0.15,-0.4 0.06,-0.27 0.17,-0.52 0.3,-0.75 0.13,-0.24 0.27,-0.36 0.4,-0.36 0.2,0 0.44,0.07 0.7,0.2 0.27,0.14 0.61,0.27 1.01,0.41 0.33,0.13 0.72,0.25 1.15,0.35 0.44,0.1 0.96,0.18 1.56,0.25 0.4,0.06 0.8,0.12 1.21,0.15 0.4,0.03 0.8,0.05 1.2,0.05 1.14,0.07 2.23,0.13 3.27,0.2 1.03,0.07 1.79,0.1 2.26,0.1l37.77 -0.1c1.2,0.07 2.29,0.07 3.26,0 0.97,-0.07 1.83,-0.13 2.56,-0.2 0.2,-0.07 0.42,-0.12 0.65,-0.15 0.24,-0.03 0.46,-0.05 0.66,-0.05 0.73,-0.14 1.34,-0.25 1.81,-0.35 0.46,-0.1 0.8,-0.15 1,-0.15 0.27,0 0.42,0.11 0.45,0.35 0.04,0.23 0.05,0.52 0.05,0.85 0,0.6 -0.01,1.34 -0.05,2.21 -0.03,0.87 -0.05,1.77 -0.05,2.71 0,0.2 0,0.42 0,0.65 0,0.23 0,0.45 0,0.65 -0.06,1.14 -0.11,2.16 -0.15,3.06 -0.03,0.91 -0.05,1.49 -0.05,1.76 0,0.47 -0.07,0.8 -0.2,1 -0.13,0.2 -0.3,0.3 -0.5,0.3 -0.27,0 -0.45,-0.11 -0.55,-0.35 -0.1,-0.23 -0.19,-0.68 -0.25,-1.35l-0.11 -1.21c-0.2,-1.47 -1.1,-2.72 -2.71,-3.76 -1.61,-1.04 -4.82,-1.59 -9.64,-1.66l-12.76 -0.3z"/>
   <path class="fil3" d="M721.12 768.69l0 -8.64c0,-2.14 -0.15,-3.88 -0.45,-5.21 -0.3,-1.34 -0.69,-2.58 -1.16,-3.72 -0.13,-0.26 -0.25,-0.52 -0.35,-0.75 -0.1,-0.23 -0.22,-0.49 -0.35,-0.75 -0.2,-0.47 -1.21,-2.21 -3.01,-5.22 -1.81,-3.01 -3.79,-6.26 -5.93,-9.74 -0.07,-0.13 -0.12,-0.23 -0.15,-0.3 -0.04,-0.06 -0.09,-0.16 -0.15,-0.3 -1.74,-2.81 -3.4,-5.47 -4.98,-7.97 -1.57,-2.51 -2.73,-4.34 -3.46,-5.47 -1.27,-1.88 -2.5,-3.43 -3.67,-4.67 -1.17,-1.24 -2.22,-2.16 -3.16,-2.76 -0.2,-0.13 -0.42,-0.27 -0.65,-0.4 -0.24,-0.14 -0.49,-0.27 -0.76,-0.4 -0.53,-0.27 -1.05,-0.47 -1.55,-0.61 -0.51,-0.13 -0.93,-0.2 -1.26,-0.2 -0.27,0 -0.5,-0.05 -0.7,-0.15 -0.21,-0.1 -0.3,-0.28 -0.3,-0.55 0,-0.2 0.09,-0.37 0.3,-0.5 0.2,-0.13 0.53,-0.2 1,-0.2 0.4,0 1.04,0.02 1.91,0.05 0.87,0.03 1.77,0.05 2.71,0.05 0.14,0 0.27,0 0.4,0 0.14,0 0.27,0.03 0.4,0.1 1.08,0 2.05,0.02 2.92,0.05 0.87,0.03 1.37,0.05 1.5,0.05 0.21,0 0.57,-0.02 1.11,-0.05 0.53,-0.03 1.17,-0.08 1.91,-0.15 0.74,0 1.57,-0.02 2.51,-0.05 0.94,-0.03 1.91,-0.05 2.91,-0.05 0.54,0 0.89,0.07 1.06,0.2 0.17,0.13 0.25,0.3 0.25,0.5 0,0.07 -0.03,0.15 -0.1,0.25 -0.07,0.1 -0.17,0.15 -0.3,0.15 -0.14,0.07 -0.3,0.14 -0.51,0.2 -0.2,0.07 -0.4,0.17 -0.6,0.3 -0.4,0.2 -0.72,0.46 -0.95,0.76 -0.24,0.3 -0.35,0.65 -0.35,1.05 0,0.6 0.11,1.22 0.35,1.86 0.23,0.63 0.55,1.32 0.95,2.05 0.4,0.74 1.53,2.7 3.37,5.88 1.84,3.17 3.8,6.57 5.87,10.18 2.08,3.61 4.02,6.96 5.83,10.04 1.81,3.07 2.95,4.98 3.41,5.72 0.47,-1.01 1.48,-2.91 3.02,-5.72 1.54,-2.81 3.21,-5.79 5.02,-8.94 0.07,-0.13 0.13,-0.25 0.2,-0.35 0.07,-0.1 0.14,-0.21 0.2,-0.35 1.81,-3.14 3.52,-6.1 5.13,-8.88 1.6,-2.78 2.68,-4.56 3.21,-5.37 0.67,-1.07 1.12,-2.02 1.36,-2.86 0.23,-0.83 0.35,-1.59 0.35,-2.26 0,-0.73 -0.12,-1.35 -0.35,-1.85 -0.24,-0.5 -0.66,-0.82 -1.26,-0.96 -0.13,-0.06 -0.25,-0.11 -0.35,-0.15 -0.1,-0.03 -0.19,-0.05 -0.25,-0.05 -0.34,-0.13 -0.59,-0.25 -0.76,-0.35 -0.16,-0.1 -0.25,-0.25 -0.25,-0.45 0,-0.2 0.17,-0.35 0.51,-0.45 0.33,-0.1 0.73,-0.15 1.2,-0.15 0.27,0 0.54,0 0.8,0 0.27,0 0.54,0 0.81,0 0.4,0.07 0.8,0.1 1.2,0.1 0.4,0 0.81,0 1.21,0 0.6,0.07 1.14,0.12 1.61,0.15 0.47,0.03 0.8,0.05 1,0.05 0.14,0 0.64,-0.02 1.51,-0.05 0.87,-0.03 1.84,-0.08 2.91,-0.15 0.07,0 0.17,0 0.3,0 0.14,0 0.27,0 0.4,0 0.94,0 1.85,-0.02 2.72,-0.05 0.87,-0.03 1.5,-0.05 1.9,-0.05 0.34,0 0.64,0.05 0.91,0.15 0.27,0.1 0.4,0.25 0.4,0.45 0,0.27 -0.12,0.47 -0.35,0.6 -0.24,0.14 -0.55,0.2 -0.96,0.2 -0.4,0 -0.88,0.05 -1.45,0.15 -0.57,0.11 -1.16,0.29 -1.76,0.56 -0.27,0.13 -0.52,0.25 -0.75,0.35 -0.24,0.1 -0.45,0.21 -0.66,0.35 -0.46,0.27 -0.88,0.53 -1.25,0.8 -0.37,0.27 -0.72,0.6 -1.06,1.01 -0.47,0.4 -0.93,0.87 -1.4,1.4 -0.47,0.54 -1.01,1.17 -1.61,1.91 -0.8,0.93 -2.08,2.77 -3.82,5.52 -1.74,2.74 -3.61,5.75 -5.62,9.03 -0.14,0.27 -0.27,0.52 -0.4,0.75 -0.14,0.23 -0.31,0.49 -0.51,0.75 -2.07,3.48 -3.96,6.74 -5.67,9.79 -1.71,3.04 -2.8,5.1 -3.27,6.17 -0.53,1.27 -0.9,2.51 -1.1,3.71 -0.2,1.21 -0.34,2.38 -0.4,3.51 0,0.47 0,0.94 0,1.41 0,0.47 0,0.94 0,1.4l0 8.54c0,0.86 0.01,2.24 0.05,4.11 0.03,1.87 0.11,3.88 0.25,6.02 0.13,1.47 0.48,2.71 1.05,3.71 0.57,1.01 1.59,1.61 3.07,1.81 0.26,0.07 0.55,0.12 0.85,0.15 0.3,0.03 0.62,0.05 0.95,0.05 0.54,0.07 1.06,0.12 1.56,0.15 0.5,0.03 0.89,0.05 1.16,0.05 0.33,0 0.55,0.07 0.65,0.2 0.1,0.14 0.15,0.27 0.15,0.4 0,0.27 -0.13,0.45 -0.4,0.56 -0.27,0.09 -0.67,0.15 -1.21,0.15 -0.33,0 -0.67,0 -1,0 -0.34,0 -0.67,0 -1.01,0 -1.07,0 -2.12,-0.02 -3.16,-0.06 -1.04,-0.03 -1.99,-0.05 -2.86,-0.05 -1.21,-0.06 -2.2,-0.11 -2.97,-0.15 -0.77,-0.03 -1.22,-0.05 -1.35,-0.05 -0.14,0 -0.59,0.02 -1.36,0.05 -0.77,0.04 -1.66,0.09 -2.66,0.15 -0.27,0 -0.54,0 -0.8,0 -0.27,0 -0.57,0 -0.91,0 -0.74,0 -1.47,0.02 -2.21,0.05 -0.73,0.04 -1.37,0.06 -1.91,0.06 -0.53,0 -0.93,-0.06 -1.2,-0.15 -0.27,-0.11 -0.4,-0.29 -0.4,-0.56 0,-0.13 0.06,-0.26 0.2,-0.4 0.13,-0.13 0.33,-0.2 0.6,-0.2 0.2,0 0.44,-0.02 0.7,-0.05 0.27,-0.03 0.54,-0.05 0.81,-0.05 0.27,-0.07 0.53,-0.12 0.8,-0.15 0.27,-0.03 0.5,-0.08 0.7,-0.15 1.01,-0.2 1.76,-0.8 2.26,-1.81 0.51,-1 0.79,-2.24 0.86,-3.71 0.13,-2.14 0.22,-4.15 0.25,-6.02 0.03,-1.87 0.05,-3.21 0.05,-4.02l0 -0.09z"/>
  </g>
 </g>
</svg>
